<?xml version="1.0" encoding="utf-8"?>
<!-- Generator: Adobe Illustrator 22.0.1, SVG Export Plug-In . SVG Version: 6.00 Build 0)  -->
<svg version="1.1" id="Layer_1" xmlns="http://www.w3.org/2000/svg" xmlns:xlink="http://www.w3.org/1999/xlink" x="0px" y="0px"
	 viewBox="0 0 235 116" style="enable-background:new 0 0 235 116;" xml:space="preserve">
<style type="text/css">
	.st0{fill:#C6C6C6;}
	.st1{fill:none;stroke:#FFFFFF;stroke-width:0;}
	.st2{fill:#009FE3;}
</style>
<g>
	<path class="st0" d="M41.5,61.8H28.6l6.5-6.4L41.5,61.8z M26.1,64.2h17.8l5.5,5.5H20.6L26.1,64.2z M55.7,76.7H14.3L19,72h32
		L55.7,76.7z M14.3,79.3h41.4v3.9H14.3V79.3z M14.3,88.1h41.4v3.1H14.3V88.1z M14.3,95.3h41.4v2.2H14.3V95.3z M55.7,104.6H14.3V104
		h41.4V104.6z M85.5,18.4H72.6L79,12L85.5,18.4z M70.1,20.8h17.8l5.5,5.5H64.5L70.1,20.8z M99.3,33.4H57.9l4.8-4.7h32L99.3,33.4z
		 M57.9,36.5h41.4v3.9H57.9V36.5z M57.9,45.2h41.4v3.1H57.9V45.2z M57.9,52.7h41.4v2.2H57.9V52.7z M99.3,61.8H57.9v-0.7h41.4V61.8z
		 M56.9,33.9l-6.5,6.4h12.9L56.9,33.9z M42.4,48.3h28.8l-5.5-5.5H48L42.4,48.3z M72.8,50.2h-32l-4.8,4.7h41.4L72.8,50.2z M77.5,57.9
		H36.1v3.9h41.4V57.9z M77.5,66.6H36.1v3.1h41.4V66.6z M77.5,74.5H36.1v2.2h41.4V74.5z M36.1,83.2h41.4v-0.7H36.1V83.2z"/>
	<line class="st1" x1="57.9" y1="40.4" x2="63.4" y2="40.4"/>
	<line class="st1" x1="57.9" y1="48.3" x2="71.1" y2="48.3"/>
	<line class="st1" x1="57.9" y1="61.8" x2="77.4" y2="61.8"/>
	<line class="st1" x1="57.9" y1="54.9" x2="77.4" y2="54.9"/>
	<line class="st1" x1="36.1" y1="61.8" x2="41.5" y2="61.8"/>
	<line class="st1" x1="36.1" y1="69.7" x2="49.4" y2="69.7"/>
	<line class="st1" x1="36.1" y1="76.7" x2="55.7" y2="76.7"/>
	<polygon class="st2" points="63.4,40.4 57.9,40.4 57.9,36.5 59.5,36.5 	"/>
	<polygon class="st2" points="71.1,48.3 57.9,48.3 57.9,45.2 68.2,45.2 	"/>
	<polygon class="st2" points="77.4,54.9 57.9,54.9 57.9,52.7 75.3,52.7 	"/>
	<rect x="57.9" y="61.1" class="st2" width="19.6" height="0.7"/>
	<polygon class="st2" points="41.5,61.8 36.1,61.8 36.1,57.9 37.7,57.9 	"/>
	<polygon class="st2" points="49.3,69.7 36.1,69.7 36.1,66.6 46.3,66.6 	"/>
	<polygon class="st2" points="55.6,76.7 36.1,76.7 36.1,74.5 53.5,74.5 	"/>
	<rect x="36.1" y="82.5" class="st2" width="19.5" height="0.7"/>
	<path class="st2" d="M115.4,53h4.5l0.1,30.5h-5.6l0-8.5h-7.2l-5.6,8.5h-6.2L115.4,53z M114.3,70l0-5.9l-4.5,5.9H114.3z"/>
	<path class="st2" d="M122.7,83.5V53h6.8c2.2,0,5.1,0.5,7.4,2.7c2.5,2.3,3.2,5,3.2,8.2c0,3-0.7,5.1-2.8,7.6
		c-2.1,2.5-3.9,3.4-7.8,3.7l-1.7,0.1v8.2H122.7z M129.5,69.8c1.4,0,2-0.2,3.3-1.2c1.4-1.1,1.6-2.7,1.6-4.4c0-1.9-0.2-3.7-1.8-4.8
		c-1-0.8-2-0.8-3.2-0.8h-1.6v11.3H129.5z"/>
	<path class="st2" d="M171.4,74.8c-2.3,5.5-8.3,9-14.2,9c-8.7,0-15.8-7.3-15.8-16c0-8.6,7.1-15.8,15.6-15.8c6.1,0,12.1,3.6,14.5,9.3
		h-6.4c-1.9-2.3-5-3.8-8-3.8c-5.6,0-10,4.8-10,10.5c0,5.4,4.6,10.3,10.1,10.3c3,0,5.6-1.4,7.7-3.5H171.4z"/>
	<polygon class="st2" points="173.2,52.6 178.8,52.6 178.8,64.8 189.7,64.8 189.7,52.6 195.4,52.6 195.4,83.1 189.7,83.1 
		189.7,70.3 178.8,70.3 178.8,83.1 173.2,83.1 	"/>
	<path class="st2" d="M217.8,84.5h-3.4l-0.8-1.2l-13.8,0l0-30.6h4.6l20.1,30.6l-7.4,0L217.8,84.5z M214.1,78.3l1.2,0l-10.4-15.8
		v15.8h5.9l-0.9-1.3h3.3L214.1,78.3z"/>
</g>
</svg>
