<svg xmlns="http://www.w3.org/2000/svg" width="61.282" height="41.964" viewBox="0 0 61.282 41.964">
  <g id="Group_26" data-name="Group 26" transform="translate(-176.039 -223.789)">
    <g id="Layer_1" data-name="Layer 1" transform="translate(176.039 223.789)">
      <path id="Path_58" data-name="Path 58" d="M269.283,258.934l-.475.122c-.127-.212-.13-.4.118-.459.332-.075.321-.3.321-.547q0-5.62,0-11.24c0-.94,0-1.88,0-2.82,0-.425.059-.479.492-.481.877,0,1.753,0,2.63,0,.451,0,.452,0,.455-.439,0-.33-.009-.661.008-.99a.855.855,0,0,1,.129-.281c.066.092.187.184.189.278.014.571.006,1.142,0,1.713,0,.215-.046.429-.046.644q0,5.982,0,11.964c0,.176-.127.5.163.5s.161-.323.162-.5q.012-6.153.006-12.307c0-.579,0-.58.593-.58.94,0,1.881-.022,2.82.007a8.1,8.1,0,0,1,3.2.551,5.773,5.773,0,0,1,3.11,3.657,12.4,12.4,0,0,1,.611,4c0,1.051.005,2.107-.092,3.152a8.545,8.545,0,0,1-1.289,4.091A5.07,5.07,0,0,1,279.44,261a11.642,11.642,0,0,1-3.5.436.459.459,0,0,0-.538.486c-.025.295-.032.591-.046.887l-.117.018c-.114-.374-.253-.742-.334-1.122-.062-.291-.236-.319-.471-.314s-.329.163-.353.368a4.025,4.025,0,0,0-.014.456q0,5.391,0,10.783c0,.813,0,.813-.818.813q-4.611,0-9.223.005a2.807,2.807,0,0,0-.57.13,2.945,2.945,0,0,0-.641-.129q-17.321-.011-34.642-.007c-.757,0-.7.057-.7-.7,0-2.921.02-5.842.009-8.763-.012-3.161-.048-6.322-.083-9.482a1.012,1.012,0,0,0-.16-.524,4.676,4.676,0,0,1-.556-1.84c-.037-.194-.051-.416-.363-.289.037-.692.071-1.333.107-1.973.042-.758.081-1.517.132-2.275q.119-1.764.255-3.526a4.686,4.686,0,0,1,.093-.5l.4.124a1.355,1.355,0,0,0,.071-.4c-.042-.329.087-.458.411-.489a1.21,1.21,0,0,0,.437-.217c.2-.116.311-.071.343.158a1.812,1.812,0,0,1,.014.19c.011.307.143.44.475.436,1.372-.016,2.744,0,4.116-.014.356,0,.535.1.607.456.316,1.564.646,3.125.971,4.688.118.569.243,1.137.353,1.708a4.214,4.214,0,0,1,.1.788q0,7.944-.014,15.888a4.112,4.112,0,0,1-.06.5l-.147.01-2.961-13.437-.055,0c0,.1.01.2.013.3,0,.114.009.228.008.343-.021,1.738-.063,3.477-.059,5.215.008,4.037.039,8.074.06,12.112,0,.469.01.479.462.479q1.867,0,3.735,0c.449,0,.46-.041.362-.492-.268-1.238-.547-2.475-.764-3.722a12.757,12.757,0,0,1-.155-2.036c-.033-3.1-.042-6.2-.064-9.293q-.042-5.77-.093-11.541a1.224,1.224,0,0,1,.048-.416,1.123,1.123,0,0,1,.369.921c.017.8.006,1.6.006,2.4,0,.6.027,1.2-.006,1.79a9.121,9.121,0,0,0,.332,2.439c.209.976.393,1.958.6,2.935.247,1.165.507,2.327.761,3.491q.128.586.258,1.171l.091,0c.022-.137.039-.276.067-.412.211-1.044.43-2.086.634-3.131.25-1.28.483-2.563.735-3.842.206-1.043.436-2.082.643-3.125.2-.994.374-1.992.568-2.987q.336-1.714.694-3.424c.02-.1.122-.243.191-.246a5.868,5.868,0,0,1,1.092.026c.252.036.281.273.28.508-.006,1.93,0,3.861,0,5.791q0,.226,0,.452h.085c.1-3.9-.07-7.794-.041-11.691l.222-.02a5.729,5.729,0,0,1,.18.963c.022,1.155.008,2.311.01,3.467,0,.454.009.461.476.462,1.029,0,2.058,0,3.087.01.588,0,.627.043.627.628q0,11.564,0,23.128,0,2.661,0,5.322c0,.465,0,.466.465.468q.838,0,1.677,0c.484,0,.518-.034.488-.523a1.992,1.992,0,0,0-.068-.337l-.612-.193-.035-.151c.066-.035.134-.068.2-.106a.953.953,0,0,0,.446-.754q.112-.79.257-1.576a4.657,4.657,0,0,1,1-1.733c.556-.8,1.177-1.561,1.691-2.388.978-1.572,1.9-3.183,2.847-4.771.346-.577.744-1.123,1.07-1.711.269-.484.464-1.009.695-1.515a.952.952,0,0,1,.161-.294,1.228,1.228,0,0,0,.352-.931.824.824,0,0,1,.164-.372c.172-.278.371-.54.532-.824a4.576,4.576,0,0,0,.7-2.345,1.406,1.406,0,0,1,.071-.332A8.222,8.222,0,0,0,259.7,248c-.374-1.512-.976-1.667-2.294-1.852a1.711,1.711,0,0,0-1.682.952.3.3,0,0,0,.031.291c.194.179.126.327-.006.514l-.4-.24c-.118.3-.245.563-.333.843a5.5,5.5,0,0,0-.08,2.115c.018.227.012.457.013.685a.33.33,0,0,1-.37.379q-1.94,0-3.879.01c-.236,0-.3-.113-.3-.333,0-.66-.041-1.319-.036-1.979a3.457,3.457,0,0,1,.124-.825c.205-.8.446-1.588.642-2.389a4.357,4.357,0,0,1,.947-1.586c.278-.361.515-.755.805-1.106a2.2,2.2,0,0,1,.533-.379,7.794,7.794,0,0,1,7.636-.462,5.374,5.374,0,0,1,1.947,1.611,2.835,2.835,0,0,1,.81,1.467c.01.081.067.207.127.224.365.1.264.389.3.638a14.613,14.613,0,0,0,.269,1.765,7.7,7.7,0,0,1-.1,3.614,26.685,26.685,0,0,1-1.83,5.241c-.34.75-.794,1.451-1.1,2.214a6.188,6.188,0,0,1-.662,1.142,10.8,10.8,0,0,0-.723,1.423.54.54,0,0,0,.007.317.465.465,0,0,1-.179.563,1.677,1.677,0,0,1-.043-.185,1.612,1.612,0,0,1,0-.183l-.085-.04-4.573,6.861c.238.024.391.053.543.053q3.868,0,7.736,0c.558,0,.581.023.582.577,0,.812.009,1.625,0,2.437,0,.294.1.4.4.4q2.267-.016,4.535,0c.307,0,.4-.108.389-.4a1.036,1.036,0,0,0-.37-.905c-.21-.153-.049-.328.064-.485a.6.6,0,0,0,.146-.3c.008-2.362.035-4.725-.016-7.086a14.859,14.859,0,0,1,.019-1.749c.01-.1.052-.253-.154-.181,0-.111-.029-.246.021-.328a.519.519,0,0,0,0-.687c-.077-.1,0-.321.017-.485C269.174,259.775,269.226,259.386,269.283,258.934Zm-26.18-5.089-.051,0-3.971,18.868a.541.541,0,0,0,.118.045q2.456,0,4.913.005a.346.346,0,0,0,.215-.05c.251-.229.491-.472.754-.729-.381-.311-.681-.785-1.3-.778-.681.008-.681,0-.682-.688q0-.99,0-1.98Zm32.371,3.03a7.741,7.741,0,0,0,1.719-.023c.99-.234,1.353-1.092,1.565-1.976a11.3,11.3,0,0,0,.147-4.228,4.8,4.8,0,0,0-.524-1.61,2.041,2.041,0,0,0-1.752-.981c-.669-.046-1.344-.013-2.017-.011-.52,0-.522,0-.522.539q0,3.882,0,7.764a.778.778,0,0,0,.013.3c.045.1.139.234.227.246a6.009,6.009,0,0,0,.791.012,2.231,2.231,0,0,1,.205-1.69A2.489,2.489,0,0,1,275.473,256.875Zm-14.388-6.831.034.176.6-.127-.032-.159Z" transform="translate(-222.484 -237.214)" fill="#fff"/>
      <path id="Path_59" data-name="Path 59" d="M761.859,518.255a6.9,6.9,0,0,0-.668-.23c-.254-.06-.3-.193-.192-.47.14.09.258.168.377.244.286.181.494.1.484-.227-.012-.383.149-.791-.206-1.144-.125-.124-.078-.421-.11-.639l.142-.042c.078.214.1.487.251.626a1.827,1.827,0,0,0,.672.232c.082.269-.586.583.053.816a1.767,1.767,0,0,0-.324,1.315.33.33,0,0,1-.047.165,1.647,1.647,0,0,1-.648-.169c-.165-.124-.026-.291.146-.373C761.807,518.35,761.816,518.32,761.859,518.255Z" transform="translate(-716.336 -493.479)" fill="#fff"/>
      <path id="Path_60" data-name="Path 60" d="M735.993,254.366l.291.159c.211-.142.24-.253.046-.451a.906.906,0,0,1-.248-.549,2.05,2.05,0,0,1,.164-1.3.814.814,0,0,1,.322-.3v3.722A1.337,1.337,0,0,1,735.993,254.366Z" transform="translate(-693.251 -249.782)" fill="#fff"/>
      <path id="Path_61" data-name="Path 61" d="M772.988,319.858a2.153,2.153,0,0,1,.093.421c-.014.782-.038,1.565-.062,2.347a.516.516,0,0,1-.044.221.465.465,0,0,1-.182.211c-.04.018-.154-.07-.2-.135a1.9,1.9,0,0,1-.265-.5c-.031-.109.006-.324.078-.36.242-.119.221-.31.215-.51-.009-.3,0-.609-.037-.908C772.547,320.33,772.687,320.122,772.988,319.858Z" transform="translate(-726.841 -312.531)" fill="#fff"/>
      <path id="Path_62" data-name="Path 62" d="M771.36,570.644v2.607a1.148,1.148,0,0,1-.594-.81C770.658,571.255,770.742,570.993,771.36,570.644Z" transform="translate(-725.369 -544.189)" fill="#fff"/>
      <path id="Path_63" data-name="Path 63" d="M737.231,495.837c-.534.265-.61.217-.644-.281-.055-.807-.132-1.612-.2-2.417-.005-.063-.042-.146-.015-.184a2.381,2.381,0,0,1,.262-.272c.069.084.19.163.2.253.027.289,0,.582.023.871.01.105.133.2.178.3a.943.943,0,0,1,.032.262c-.29.008-.234.246-.268.416-.025.123-.009.255-.039.376-.073.3.008.491.32.565C737.121,495.739,737.157,495.783,737.231,495.837Z" transform="translate(-693.625 -472.173)" fill="#fff"/>
      <path id="Path_64" data-name="Path 64" d="M736.047,570.284c.049.248.083.414.115.58.021.111.007.245.067.328.253.352.126.675.011,1.038a6.131,6.131,0,0,0-.142,1.107,1.278,1.278,0,0,0-.21-.012c-.251.014-.279-.112-.209-.31a5.148,5.148,0,0,0,.276-.823,1.227,1.227,0,0,0-.06-.692A1.033,1.033,0,0,1,736.047,570.284Z" transform="translate(-692.963 -543.856)" fill="#fff"/>
      <path id="Path_65" data-name="Path 65" d="M244.017,268.662a1.823,1.823,0,0,1,.005,1.508c-.142.29-.447.2-.68.157-.093-.017-.195-.208-.219-.334-.046-.242.06-.41.339-.336s.359-.059.362-.31c0-.229.028-.458.043-.687Z" transform="translate(-237.998 -265.237)" fill="#fff"/>
      <path id="Path_66" data-name="Path 66" d="M529.053,596.288c-.051-.174-.2-.4-.137-.514a2.751,2.751,0,0,0,.167-1.224,1.351,1.351,0,0,1,.043-.214c.388.112.448.217.37.559-.1.451-.194.9-.29,1.357Z" transform="translate(-501.989 -566.074)" fill="#fff"/>
      <path id="Path_67" data-name="Path 67" d="M768.331,310.273l.43-.164c-.076.231-.1.484-.182.51-.134.039-.313-.077-.492-.133.031.3.072.571.08.843a.939.939,0,0,1-.111.313,1.054,1.054,0,0,1-.183-.244,1.7,1.7,0,0,1,.015-1.177C767.971,309.98,768.047,309.983,768.331,310.273Z" transform="translate(-722.642 -303.468)" fill="#fff"/>
      <path id="Path_68" data-name="Path 68" d="M738,423.066c.061.431.144.862.168,1.3.005.093-.188.234-.317.281-.054.02-.25-.143-.253-.226a2.377,2.377,0,0,1,.1-.636c.059-.239.142-.473.215-.709Z" transform="translate(-694.767 -407.867)" fill="#fff"/>
      <path id="Path_69" data-name="Path 69" d="M343.234,265.815c0-.266-.012-.533.006-.8.007-.092.088-.179.136-.268.067.078.189.154.191.233q.026.835,0,1.671c0,.079-.123.154-.189.231-.046-.078-.127-.154-.132-.235-.017-.278-.006-.557-.006-.836Z" transform="translate(-330.478 -261.626)" fill="#fff"/>
      <path id="Path_70" data-name="Path 70" d="M864.109,572.536v2.279c-.413-.111-.469-.3-.368-.657a10.566,10.566,0,0,0,.209-1.3c.016-.108.03-.216.045-.324Z" transform="translate(-811.249 -545.931)" fill="#fff"/>
      <path id="Path_71" data-name="Path 71" d="M775.764,460.659c0,.215.013.431-.007.644-.007.077-.094.147-.145.22-.055-.061-.155-.121-.157-.183q-.019-.719,0-1.438c0-.057.112-.11.172-.164.044.067.123.132.127.2.016.239.006.48.006.72Z" transform="translate(-729.729 -441.741)" fill="#fff"/>
      <path id="Path_72" data-name="Path 72" d="M732.047,244.219a.875.875,0,0,1-.125-1.069c.789-.1.789-.1.777.252-.206.048-.5.032-.583.157C732.007,243.72,732.063,243.993,732.047,244.219Z" transform="translate(-689.4 -241.62)" fill="#fff"/>
      <path id="Path_73" data-name="Path 73" d="M232.477,267.945a2.1,2.1,0,0,1,.007-.414c.017-.081.106-.148.162-.221.072.059.2.113.2.177a6.8,6.8,0,0,1,0,.9c0,.057-.13.162-.175.15a.3.3,0,0,1-.191-.18,1.835,1.835,0,0,1-.009-.413Z" transform="translate(-228.166 -263.991)" fill="#fff"/>
      <path id="Path_74" data-name="Path 74" d="M775.79,487.453c0,.177.01.354-.006.529-.005.06-.076.114-.117.171-.062-.052-.175-.1-.177-.156-.015-.377-.012-.754,0-1.131,0-.046.1-.123.156-.121a.2.2,0,0,1,.133.142c.017.188.006.378.006.567Z" transform="translate(-729.76 -466.689)" fill="#fff"/>
      <path id="Path_75" data-name="Path 75" d="M762.28,499.633l.609.143c-.068.124-.135.242-.2.363s-.129.264-.193.4C762.161,500.365,762.094,500.061,762.28,499.633Z" transform="translate(-717.473 -478.594)" fill="#fff"/>
      <path id="Path_76" data-name="Path 76" d="M737.179,550.5c-.388-.666-.356-.993.141-1.274C737.282,549.66,737.5,550.08,737.179,550.5Z" transform="translate(-694.136 -524.405)" fill="#fff"/>
      <path id="Path_77" data-name="Path 77" d="M361.755,341.773l-.237,1.156a.658.658,0,0,1,.12-1.189Z" transform="translate(-347.071 -332.743)" fill="#fff"/>
      <path id="Path_78" data-name="Path 78" d="M775.943,381.368a8.181,8.181,0,0,1,.147.91c0,.078-.166.167-.255.252-.054-.094-.158-.19-.153-.28.015-.295.07-.587.11-.88Z" transform="translate(-729.947 -369.349)" fill="#fff"/>
      <path id="Path_79" data-name="Path 79" d="M751.63,658.206l.738.379-.771.381-.114-.085Z" transform="translate(-707.593 -625.073)" fill="#fff"/>
      <path id="Path_80" data-name="Path 80" d="M548.089,582.481c.139.361.256.654.36.952a.165.165,0,0,1-.075.145.249.249,0,0,1-.2-.033A1.045,1.045,0,0,1,548.089,582.481Z" transform="translate(-519.619 -555.123)" fill="#fff"/>
      <path id="Path_81" data-name="Path 81" d="M771.517,507.884c.217.518.155.787-.188.891l-.053-.385-.3-.184Z" transform="translate(-725.6 -486.216)" fill="#fff"/>
      <path id="Path_82" data-name="Path 82" d="M776.682,403.222c0,.063.022.138,0,.188a1.68,1.68,0,0,1-.188.242,1.866,1.866,0,0,1-.189-.248.258.258,0,0,1-.009-.186c.053-.155.123-.3.187-.454l.279.413Z" transform="translate(-730.497 -389.112)" fill="#fff"/>
      <path id="Path_83" data-name="Path 83" d="M738.621,327.3a4.285,4.285,0,0,0,.173-.5,4.329,4.329,0,0,1,.081-.484,1.324,1.324,0,0,1,.16,1.01C738.93,327.626,738.752,327.412,738.621,327.3Z" transform="translate(-695.712 -318.494)" fill="#fff"/>
      <path id="Path_84" data-name="Path 84" d="M865.194,613.436c.051.272.109.542.145.816.006.046-.078.142-.129.148a.216.216,0,0,1-.178-.1,1.088,1.088,0,0,1-.022-.851Z" transform="translate(-812.39 -583.717)" fill="#fff"/>
      <path id="Path_85" data-name="Path 85" d="M362.735,266.677c-.014-.066-.058-.147-.034-.185a2.153,2.153,0,0,1,.243-.274c.025.09.053.18.074.271a1.2,1.2,0,0,1,.05.284,1.289,1.289,0,0,1-.06.357c-.008.024-.156.041-.167.021a1.509,1.509,0,0,1-.125-.328A.4.4,0,0,1,362.735,266.677Z" transform="translate(-348.458 -262.982)" fill="#fff"/>
      <path id="Path_86" data-name="Path 86" d="M740.114,451.531a1.466,1.466,0,0,1,0,1.242A1.429,1.429,0,0,1,740.114,451.531Z" transform="translate(-696.96 -434.161)" fill="#fff"/>
      <path id="Path_87" data-name="Path 87" d="M886.156,544.18c-.074.03-.179.075-.287.11-.006,0-.067-.1-.055-.116a1.277,1.277,0,0,1,.267-.282,2.33,2.33,0,0,1,.443-.164c0,.192,0,.355,0,.517Z" transform="translate(-831.678 -519.326)" fill="#fff"/>
      <path id="Path_88" data-name="Path 88" d="M673.662,553.185V554.5A1.3,1.3,0,0,1,673.662,553.185Z" transform="translate(-635.543 -528.062)" fill="#fff"/>
      <path id="Path_89" data-name="Path 89" d="M233.106,564.235l.371-1.481A1.44,1.44,0,0,1,233.106,564.235Z" transform="translate(-228.753 -536.901)" fill="#fff"/>
      <path id="Path_90" data-name="Path 90" d="M204.756,464.873v1.089A.7.7,0,0,1,204.756,464.873Z" transform="translate(-202.326 -446.485)" fill="#fff"/>
      <path id="Path_91" data-name="Path 91" d="M855.858,285.378a5.271,5.271,0,0,1,.091.553.78.78,0,0,1-.065.319c-.011.029-.151.047-.163.028a.945.945,0,0,1-.12-.3,2.226,2.226,0,0,1-.014-.328C855.576,285.421,855.674,285.33,855.858,285.378Z" transform="translate(-803.757 -280.669)" fill="#fff"/>
      <path id="Path_92" data-name="Path 92" d="M514.98,520.139a2.487,2.487,0,0,1,.489.206c.07.047.09.2.094.3,0,.059-.082.176-.111.171a.4.4,0,0,1-.241-.124,5.618,5.618,0,0,1-.31-.492Z" transform="translate(-489.057 -497.536)" fill="#fff"/>
      <path id="Path_93" data-name="Path 93" d="M760.653,345.378c-.153-.378-.052-.6.311-.734C761.118,345.089,761.078,345.191,760.653,345.378Z" transform="translate(-716 -335.426)" fill="#fff"/>
      <path id="Path_94" data-name="Path 94" d="M775.538,647.189l-.226.4c-.059-.149-.121-.3-.173-.447a.2.2,0,0,1,.006-.147,2.6,2.6,0,0,1,.178-.25,2.712,2.712,0,0,1,.147.262.4.4,0,0,1,0,.149Z" transform="translate(-729.436 -614.486)" fill="#fff"/>
      <path id="Path_95" data-name="Path 95" d="M775.138,615.783a.218.218,0,0,1,.018-.135c.036-.065.116-.106.176-.158.044.053.117.1.126.159a1.215,1.215,0,0,1,.007.409c-.017.089-.1.165-.157.247a1.829,1.829,0,0,1-.167-.251A.9.9,0,0,1,775.138,615.783Z" transform="translate(-729.437 -585.615)" fill="#fff"/>
      <path id="Path_96" data-name="Path 96" d="M853.566,243.045l.253-.25a3.312,3.312,0,0,1,.255.508c.019.058-.1.159-.153.24Z" transform="translate(-801.89 -241.345)" fill="#fff"/>
      <path id="Path_97" data-name="Path 97" d="M703.626,573.727v1.118A.841.841,0,0,1,703.626,573.727Z" transform="translate(-663.191 -547.037)" fill="#fff"/>
      <path id="Path_98" data-name="Path 98" d="M360.89,224.007l.235-.218a3.936,3.936,0,0,1,.275.532c.017.046-.115.146-.178.221Z" transform="translate(-346.791 -223.789)" fill="#fff"/>
      <path id="Path_99" data-name="Path 99" d="M620.459,396.412v1.023A.7.7,0,0,1,620.459,396.412Z" transform="translate(-586.359 -383.246)" fill="#fff"/>
      <path id="Path_100" data-name="Path 100" d="M631.678,461.462c.013-.212.017-.425.048-.634.007-.048.111-.116.168-.113a.2.2,0,0,1,.117.154c-.042.21-.11.415-.169.622Z" transform="translate(-596.926 -442.644)" fill="#fff"/>
      <path id="Path_101" data-name="Path 101" d="M722.4,529.116a1.62,1.62,0,0,1,.23.042c.044.014.117.065.112.085-.015.071-.062.195-.091.193-.214-.013-.426-.052-.639-.082a.885.885,0,0,1,.171-.207C722.238,529.109,722.328,529.124,722.4,529.116Z" transform="translate(-680.369 -505.828)" fill="#fff"/>
      <path id="Path_102" data-name="Path 102" d="M865.658,647.031l-.357.467c-.04-.107-.133-.229-.11-.319a1.787,1.787,0,0,1,.236-.419Z" transform="translate(-812.626 -614.5)" fill="#fff"/>
      <path id="Path_103" data-name="Path 103" d="M776.616,669.518a.36.36,0,0,1,.051-.584c.047-.035.273.053.29.117C777.027,669.33,776.769,669.374,776.616,669.518Z" transform="translate(-730.694 -634.975)" fill="#fff"/>
      <path id="Path_104" data-name="Path 104" d="M514.714,637.731l.422-.945.144.06-.378.962Z" transform="translate(-488.883 -605.286)" fill="#fff"/>
      <path id="Path_105" data-name="Path 105" d="M517.842,442.233v.65a.444.444,0,0,1-.141-.651Z" transform="translate(-491.564 -425.571)" fill="#fff"/>
      <path id="Path_106" data-name="Path 106" d="M738.255,638.09a.679.679,0,0,1,.02-.83A.734.734,0,0,1,738.255,638.09Z" transform="translate(-695.253 -605.724)" fill="#fff"/>
      <path id="Path_107" data-name="Path 107" d="M176.039,435.755c.26-.263.489-.244.813-.033A.746.746,0,0,1,176.039,435.755Z" transform="translate(-176.039 -419.409)" fill="#fff"/>
      <path id="Path_108" data-name="Path 108" d="M887.4,571.7a2.647,2.647,0,0,1-.181.458c-.035.058-.164.059-.251.086-.023-.092-.094-.218-.059-.268a2.7,2.7,0,0,1,.364-.365Z" transform="translate(-832.686 -545.085)" fill="#fff"/>
      <path id="Path_109" data-name="Path 109" d="M527.92,444.5l-.6.524c-.023-.088-.1-.239-.065-.263a6.656,6.656,0,0,1,.585-.387Z" transform="translate(-500.463 -427.552)" fill="#fff"/>
      <path id="Path_110" data-name="Path 110" d="M740.255,349.683l.17-.7C740.652,349.284,740.579,349.575,740.255,349.683Z" transform="translate(-697.222 -339.431)" fill="#fff"/>
      <path id="Path_111" data-name="Path 111" d="M738.544,475.746a4.784,4.784,0,0,1,.078.561c0,.051-.106.105-.164.158-.044-.063-.13-.129-.126-.188a4.081,4.081,0,0,1,.1-.51Z" transform="translate(-695.446 -456.529)" fill="#fff"/>
      <path id="Path_112" data-name="Path 112" d="M620.23,483.111a.508.508,0,0,1,.112-.712v.712Z" transform="translate(-586.26 -462.675)" fill="#fff"/>
      <path id="Path_113" data-name="Path 113" d="M584.809,417.779l.125-.736.183.034-.142.733Z" transform="translate(-553.632 -402.303)" fill="#fff"/>
      <path id="Path_114" data-name="Path 114" d="M687.834,561.206v-.7C688.082,560.658,688.1,560.894,687.834,561.206Z" transform="translate(-648.799 -534.827)" fill="#fff"/>
      <path id="Path_115" data-name="Path 115" d="M530.364,360.7v.7h-.119v-.7Z" transform="translate(-503.229 -350.255)" fill="#fff"/>
      <path id="Path_116" data-name="Path 116" d="M558.417,535.074v-.687l.105,0v.687Z" transform="translate(-529.253 -510.695)" fill="#fff"/>
      <path id="Path_117" data-name="Path 117" d="M728.871,500.026c-.033.227.049.5-.215.635l-.128-.044.2-.643Z" transform="translate(-686.389 -478.909)" fill="#fff"/>
      <path id="Path_118" data-name="Path 118" d="M884.711,563.163a1.751,1.751,0,0,1,.318.244c.05.059.036.173.05.263-.08-.008-.19.015-.233-.029a2.833,2.833,0,0,1-.272-.375Z" transform="translate(-830.533 -537.279)" fill="#fff"/>
      <path id="Path_119" data-name="Path 119" d="M241.891,270.482c.109.158.212.245.2.294a1.405,1.405,0,0,1-.2.32c-.062-.062-.179-.13-.173-.185A1.789,1.789,0,0,1,241.891,270.482Z" transform="translate(-236.703 -266.921)" fill="#fff"/>
      <path id="Path_120" data-name="Path 120" d="M867.824,668.851l-.22.284c-.058-.086-.166-.174-.161-.257.005-.1.106-.195.165-.292Z" transform="translate(-814.708 -634.661)" fill="#fff"/>
      <path id="Path_121" data-name="Path 121" d="M767.8,658.564l-.264.616C767.269,658.857,767.3,658.781,767.8,658.564Z" transform="translate(-722.268 -625.403)" fill="#fff"/>
      <path id="Path_122" data-name="Path 122" d="M510.522,544.9l.047-.622C510.932,544.534,510.921,544.654,510.522,544.9Z" transform="translate(-485.011 -519.836)" fill="#fff"/>
      <path id="Path_123" data-name="Path 123" d="M194.959,438.7c-.174,0-.347,0-.52-.009a1.329,1.329,0,0,1-.014-.2l.544.04Z" transform="translate(-193.023 -422.11)" fill="#fff"/>
      <path id="Path_124" data-name="Path 124" d="M895,565.3c-.024.1-.021.148-.044.165-.142.106-.29.2-.436.305-.021-.052-.075-.122-.058-.155A.529.529,0,0,1,895,565.3Z" transform="translate(-839.667 -539.25)" fill="#fff"/>
      <path id="Path_125" data-name="Path 125" d="M529.457,660.522l.33-.533C529.925,660.512,529.866,660.609,529.457,660.522Z" transform="translate(-502.501 -626.72)" fill="#fff"/>
      <path id="Path_126" data-name="Path 126" d="M777.118,277.04l-.143-.606.143-.04c.18.16.146.389.165.6Z" transform="translate(-731.141 -272.382)" fill="#fff"/>
      <path id="Path_127" data-name="Path 127" d="M227.836,438.93c.321.31,0,.713.043,1.063l-.182-1.028Z" transform="translate(-223.756 -422.521)" fill="#fff"/>
      <path id="Path_128" data-name="Path 128" d="M725.51,452.5l-.026-.586.182-.01.028.585Z" transform="translate(-683.577 -434.509)" fill="#fff"/>
      <path id="Path_129" data-name="Path 129" d="M895.564,574.383c.21.087.411.181.286.539l-.411-.439Z" transform="translate(-840.57 -547.643)" fill="#fff"/>
      <path id="Path_130" data-name="Path 130" d="M363.256,373.735a3.176,3.176,0,0,1-.258-.364c-.009-.017.142-.149.152-.141a1.49,1.49,0,0,1,.283.28C363.444,373.526,363.344,373.625,363.256,373.735Z" transform="translate(-348.738 -361.832)" fill="#fff"/>
      <path id="Path_131" data-name="Path 131" d="M764.4,552.252l-.1-.576.147-.033.162.563Z" transform="translate(-719.438 -526.637)" fill="#fff"/>
      <path id="Path_132" data-name="Path 132" d="M194.09,425.151v-.794l.1,0v.8Z" transform="translate(-192.713 -409.059)" fill="#fff"/>
      <path id="Path_133" data-name="Path 133" d="M508.513,422.8l.249-.609.149.06-.246.61Z" transform="translate(-483.155 -407.058)" fill="#fff"/>
      <path id="Path_134" data-name="Path 134" d="M648.05,388.816v-.622C648.3,388.439,648.307,388.5,648.05,388.816Z" transform="translate(-612.049 -375.655)" fill="#fff"/>
      <path id="Path_135" data-name="Path 135" d="M518.477,552.691l.111-.542.177.034-.1.54Z" transform="translate(-492.359 -527.105)" fill="#fff"/>
      <path id="Path_136" data-name="Path 136" d="M531.345,424.73l-.036-.57C531.6,424.331,531.615,424.444,531.345,424.73Z" transform="translate(-504.212 -408.878)" fill="#fff"/>
      <path id="Path_137" data-name="Path 137" d="M703.162,523.1l-.251.584-.145-.062.249-.6Z" transform="translate(-662.592 -500.195)" fill="#fff"/>
      <path id="Path_138" data-name="Path 138" d="M516.749,394.593l.251.561-.127.066-.3-.543Z" transform="translate(-490.604 -381.566)" fill="#fff"/>
      <path id="Path_139" data-name="Path 139" d="M684.705,572.57c.095.127.19.253.278.385a1.075,1.075,0,0,1-.124.093c-.1-.119-.2-.244-.3-.369Z" transform="translate(-645.773 -545.968)" fill="#fff"/>
      <path id="Path_140" data-name="Path 140" d="M867.539,400.3a1.73,1.73,0,0,1-.032.389c-.024.079-.119.135-.182.2-.061-.067-.169-.131-.175-.2a4.889,4.889,0,0,1,0-.793c.006-.075.115-.14.177-.21.059.071.147.134.17.215A2.1,2.1,0,0,1,867.539,400.3Z" transform="translate(-814.426 -386.266)" fill="#fff"/>
      <path id="Path_141" data-name="Path 141" d="M865.612,379.976c-.124.179-.2.4-.3.413-.263.026-.235-.228-.209-.387a1.708,1.708,0,0,1,.2-.433Z" transform="translate(-812.532 -367.688)" fill="#fff"/>
      <path id="Path_142" data-name="Path 142" d="M886.157,399.117l.213-.4c.063.118.176.236.177.354s-.109.245-.171.367Z" transform="translate(-831.995 -385.38)" fill="#fff"/>
      <path id="Path_143" data-name="Path 143" d="M887.534,380.559a4.439,4.439,0,0,1,.554.163.224.224,0,0,1,.071.208c-.023.064-.14.157-.182.142A.543.543,0,0,1,887.534,380.559Z" transform="translate(-833.268 -368.602)" fill="#fff"/>
      <path id="Path_144" data-name="Path 144" d="M898,385.357c.046.087.136.179.126.26-.012.1-.107.187-.166.28-.065-.078-.178-.152-.183-.234-.007-.1.078-.2.122-.3Z" transform="translate(-842.725 -373.034)" fill="#fff"/>
      <path id="Path_145" data-name="Path 145" d="M899.713,426.376c.08.155.171.25.152.312-.025.082-.135.138-.209.2-.05-.078-.137-.157-.137-.235S899.612,426.513,899.713,426.376Z" transform="translate(-844.338 -410.924)" fill="#fff"/>
      <path id="Path_146" data-name="Path 146" d="M863.863,393.342c.219-.1.407-.114.452.287l-.492-.172Z" transform="translate(-811.365 -380.354)" fill="#fff"/>
    </g>
    <g id="Layer_2" data-name="Layer 2" transform="translate(182.084 262.531)">
      <path id="Path_147" data-name="Path 147" d="M255.294,735.492v-.061a.116.116,0,0,1,.116-.116h.315v-2.521h-.315a.116.116,0,0,1-.116-.116v-.061a.116.116,0,0,1,.116-.116h2.422a.116.116,0,0,1,.116.116v.712a.116.116,0,0,1-.116.116h-.116a.116.116,0,0,1-.116-.116v-.535h-1.423v1.043h.938v-.221a.116.116,0,0,1,.116-.116h0a.116.116,0,0,1,.116.116v.778a.116.116,0,0,1-.116.116h0a.116.116,0,0,1-.116-.116v-.243h-.938v1.164h.314a.116.116,0,0,1,.116.116v.061a.116.116,0,0,1-.116.116H255.41A.116.116,0,0,1,255.294,735.492Z" transform="translate(-255.294 -732.444)" fill="#fff"/>
      <path id="Path_148" data-name="Path 148" d="M361.313,734.965a1.82,1.82,0,0,1-.692-.127,1.558,1.558,0,0,1-.872-.863,1.605,1.605,0,0,1-.119-.615,1.626,1.626,0,0,1,.119-.618,1.563,1.563,0,0,1,.339-.516,1.6,1.6,0,0,1,.532-.353,1.914,1.914,0,0,1,1.385,0,1.607,1.607,0,0,1,.532.353,1.565,1.565,0,0,1,.339.516,1.628,1.628,0,0,1,.119.618,1.606,1.606,0,0,1-.119.615,1.564,1.564,0,0,1-.869.863A1.816,1.816,0,0,1,361.313,734.965Zm0-.331a1.231,1.231,0,0,0,.5-.1,1.1,1.1,0,0,0,.381-.276,1.2,1.2,0,0,0,.237-.405,1.487,1.487,0,0,0,.08-.494,1.537,1.537,0,0,0-.08-.5,1.188,1.188,0,0,0-.237-.411,1.135,1.135,0,0,0-.381-.279,1.307,1.307,0,0,0-1.012,0,1.1,1.1,0,0,0-.375.281,1.238,1.238,0,0,0-.234.414,1.535,1.535,0,0,0-.08.5,1.486,1.486,0,0,0,.08.494,1.219,1.219,0,0,0,.234.406,1.05,1.05,0,0,0,.375.273A1.255,1.255,0,0,0,361.313,734.634Z" transform="translate(-351.672 -731.743)" fill="#fff"/>
      <path id="Path_149" data-name="Path 149" d="M473.3,735.529V735.4a.08.08,0,0,1,.08-.08h.351v-2.521h-.351a.08.08,0,0,1-.08-.08v-.133a.08.08,0,0,1,.08-.08h1.554a1.567,1.567,0,0,1,.563.091.77.77,0,0,1,.364.27.76.76,0,0,1,.127.45.9.9,0,0,1-.08.386.677.677,0,0,1-.256.284,1.191,1.191,0,0,1-.463.157l.712,1.175h.378a.079.079,0,0,1,.08.08v.133a.08.08,0,0,1-.08.08h-.642a.08.08,0,0,1-.069-.039l-.81-1.384h-.741v-.3h.846a.832.832,0,0,0,.417-.085.477.477,0,0,0,.2-.215.638.638,0,0,0,.058-.262.547.547,0,0,0-.063-.262.467.467,0,0,0-.2-.19.717.717,0,0,0-.342-.072h-.756v2.521h.351a.08.08,0,0,1,.08.08v.133a.08.08,0,0,1-.08.08h-1.154A.08.08,0,0,1,473.3,735.529Z" transform="translate(-456.67 -732.444)" fill="#fff"/>
      <path id="Path_150" data-name="Path 150" d="M582.913,735.541v-.159a.067.067,0,0,1,.067-.067h.33l.9-2.521h-.281a.067.067,0,0,1-.067-.067v-.159a.067.067,0,0,1,.067-.067h1.383a.067.067,0,0,1,.067.067v.159a.067.067,0,0,1-.067.067h-.292l.927,2.521h.308a.067.067,0,0,1,.067.067v.159a.067.067,0,0,1-.067.067h-1.13a.067.067,0,0,1-.067-.067v-.159a.067.067,0,0,1,.067-.067h.347l-.314-.9h-1.125l-.309.9h.347a.067.067,0,0,1,.067.067v.159a.067.067,0,0,1-.067.067H582.98A.067.067,0,0,1,582.913,735.541Zm1.208-1.423h.949l-.452-1.319h-.033Z" transform="translate(-557.925 -732.444)" fill="#fff"/>
      <path id="Path_151" data-name="Path 151" d="M698.857,735a1.893,1.893,0,0,1-.916-.207,1.423,1.423,0,0,1-.582-.574,1.707,1.707,0,0,1-.2-.836,1.6,1.6,0,0,1,.215-.839,1.5,1.5,0,0,1,.6-.56,1.849,1.849,0,0,1,.877-.2,1.406,1.406,0,0,1,.764.193,1.287,1.287,0,0,1,.466.5h-.166v-.547a.093.093,0,0,1,.093-.093h.173a.093.093,0,0,1,.093.093v.775a.093.093,0,0,1-.093.093h-.169a.093.093,0,0,1-.083-.053,1.105,1.105,0,0,0-.406-.46,1.209,1.209,0,0,0-.656-.177,1.314,1.314,0,0,0-.648.152,1.047,1.047,0,0,0-.422.43,1.392,1.392,0,0,0-.149.665,1.531,1.531,0,0,0,.149.7,1.066,1.066,0,0,0,.428.455,1.29,1.29,0,0,0,.654.16,1.6,1.6,0,0,0,.43-.066,1.043,1.043,0,0,0,.35-.182.819.819,0,0,0,.237-.315,1.123,1.123,0,0,0,.086-.458l.248.039h-.812a.093.093,0,0,1-.093-.093v-.123a.093.093,0,0,1,.093-.093h1.005v.165a1.691,1.691,0,0,1-.1.6,1.229,1.229,0,0,1-.3.461,1.331,1.331,0,0,1-.491.292A2.021,2.021,0,0,1,698.857,735Z" transform="translate(-663.457 -731.776)" fill="#fff"/>
      <path id="Path_152" data-name="Path 152" d="M809.451,735.553v-.183a.055.055,0,0,1,.055-.055h.376v-2.521h-.376a.055.055,0,0,1-.055-.055v-.183a.055.055,0,0,1,.055-.055H812.1a.055.055,0,0,1,.055.055v.812a.055.055,0,0,1-.055.055h-.238a.055.055,0,0,1-.055-.055v-.574h-1.473v1.054h.965v-.31a.055.055,0,0,1,.055-.055h.117a.055.055,0,0,1,.055.055v.928a.055.055,0,0,1-.055.055h-.117a.055.055,0,0,1-.055-.055v-.315h-.965v1.164h1.5v-.591a.055.055,0,0,1,.055-.055h.238a.055.055,0,0,1,.055.055v.829a.055.055,0,0,1-.055.055h-2.622A.055.055,0,0,1,809.451,735.553Z" transform="translate(-767.185 -732.444)" fill="#fff"/>
    </g>
  </g>
</svg>
