<svg xmlns="http://www.w3.org/2000/svg" width="345.056" height="102.473" viewBox="0 0 345.056 102.473">
  <g id="Group_24" data-name="Group 24" transform="translate(1127 270.237)">
    <g id="Group_23" data-name="Group 23" transform="translate(-1161.72 -320.821)">
      <path id="Path_53" data-name="Path 53" d="M379.776,153.057H34.72V50.584H379.776ZM37.474,150.3H377.022V53.338H37.474Z" fill="#231f20"/>
      <rect id="Rectangle_22" data-name="Rectangle 22" width="10.471" height="25.614" transform="translate(246.794 89.15)" fill="#231f20"/>
      <rect id="Rectangle_23" data-name="Rectangle 23" width="10.746" height="9.165" transform="translate(63.312 105.482)" fill="#231f20"/>
      <path id="Path_54" data-name="Path 54" d="M228.533,155.576l-.062.258h6.463l-2.95-14.174Z" transform="translate(-103.805 -48.796)" fill="#231f20"/>
      <rect id="Rectangle_24" data-name="Rectangle 24" width="10.502" height="9.398" transform="translate(279.852 89.035)" fill="#231f20"/>
      <path id="Path_55" data-name="Path 55" d="M53.7,69.566v84.849H381.134V69.566Zm38.971,36.766-4,4.831,4,3.846V126.9l-5.788,5.79H65.037V91.248H86.645l6.029,5.792Zm25.021,26.384H97.857V91.13h8.476v33.688h11.362Zm26.962-.029-1.492-7.815H133.2l-1.7,7.815h-8.71L131.83,91.13h12.729l9.049,41.557Zm40.881-29.853h-8.415V99.321H166.682v8.4h13.1l5.757,5.762v13.263l-6,6H164.269l-6-6v-5.59h8.473l-.061,3.568,10.444.181v-9.343H164.267l-6-5.763V97.244l6-6H179.54l6,5.763Zm30.632-3.512h-8.589v33.424H199.2V99.321h-8.834V91.247l25.809-.116Zm27.017-.205H230.879v8.437l10.82-.089v8.19h-10.82v17.034h-8.446V91.248h20.753Zm32.665,28.127-6,5.532H254.578l-6.272-6V97.011l6.028-5.763h15.519l6,5.763Zm33.117-17.994-3.772,3.864,3.772,3.624V132.51h-8.445V116.442H289.929l.091,16.3h-8.414V91.015l21.091.114,6.271,5.8Zm33.086-3.05H333.61V99.115h-10.5v25.7h10.5V115.13h8.445v11.765l-6.029,5.792H320.45l-5.788-5.791V97.038l5.788-5.791h15.573l6.032,6.025Zm27.518-7.083H355.562v8.437l12.525-.089v8.3l-12.525-.117v9.163l14.012.176v7.7H347.116V91.248h22.457Z" transform="translate(-10.17 -10.17)" fill="#231f20"/>
      <rect id="Rectangle_25" data-name="Rectangle 25" width="10.746" height="8.435" transform="translate(63.312 88.945)" fill="#231f20"/>
    </g>
  </g>
</svg>
