<?xml version="1.0" encoding="UTF-8"?>
<svg version="1.1" xmlns="http://www.w3.org/2000/svg" width="2000" height="500">
<path d="M0 0 C57.12296548 -0.00550041 114.24593097 -0.01076987 171.36889648 -0.01586914 C172.48662928 -0.01596894 173.60436207 -0.01606874 174.75596556 -0.01617156 C294.48388111 -0.02685542 414.21179666 -0.03607943 533.93971252 -0.04234314 C536.59813872 -0.04248259 539.25656492 -0.04262204 541.91499111 -0.04276149 C597.01589798 -0.04564751 652.11680486 -0.04833887 707.21771175 -0.05078693 C709.30621894 -0.05087972 711.39472612 -0.05097252 713.4832333 -0.05106533 C714.17303056 -0.05109598 714.86282782 -0.05112663 715.57352802 -0.05115821 C741.51124683 -0.05231126 767.44896563 -0.05350863 793.38668443 -0.05473244 C796.20489406 -0.05486537 799.0231037 -0.05499779 801.84131333 -0.05512976 C868.38122889 -0.05824591 934.92114425 -0.06215981 1001.46105957 -0.06866455 C1002.51199298 -0.0687672 1002.51199298 -0.0687672 1003.58415736 -0.06887193 C1026.88367648 -0.07114901 1050.18319558 -0.0735034 1073.48271469 -0.07586844 C1094.53452716 -0.07800509 1115.58633964 -0.08011399 1136.63815212 -0.08213139 C1137.67545824 -0.08223081 1137.67545824 -0.08223081 1138.73372004 -0.08233224 C1182.02740839 -0.08647453 1225.32109669 -0.08941533 1268.61478519 -0.09113979 C1269.28321592 -0.09116658 1269.95164664 -0.09119336 1270.64033284 -0.09122096 C1300.65143984 -0.09242251 1330.66254684 -0.09334784 1360.67365385 -0.09400098 C1372.4762079 -0.09426262 1384.27876195 -0.09456324 1396.08131599 -0.09487724 C1398.01896521 -0.09492738 1398.01896521 -0.09492738 1399.99575885 -0.09497854 C1441.66833479 -0.09607632 1483.34090967 -0.10035191 1525.01348519 -0.10628221 C1566.96609039 -0.11223789 1608.91869456 -0.11510176 1650.8713002 -0.11362399 C1656.65933258 -0.11342089 1662.44736496 -0.11325351 1668.23539734 -0.11310768 C1669.93743267 -0.11306286 1669.93743267 -0.11306286 1671.67385256 -0.11301713 C1689.69266871 -0.11263543 1707.71148269 -0.11563018 1725.73029825 -0.12000986 C1743.41762263 -0.12424037 1761.10494416 -0.12495083 1778.7922688 -0.12183181 C1789.18186154 -0.12010809 1799.57144531 -0.12116967 1809.96103702 -0.126217 C1816.84233333 -0.12929101 1823.72362316 -0.12880558 1830.60491926 -0.12530107 C1834.51783213 -0.12341173 1838.43072742 -0.1231481 1842.343639 -0.12723524 C1846.53062097 -0.13157511 1850.71756071 -0.12832196 1854.90454286 -0.1241985 C1856.13285986 -0.12670737 1857.36117686 -0.12921625 1858.62671558 -0.13180115 C1859.72796921 -0.12944826 1860.82922283 -0.12709536 1861.96384778 -0.12467116 C1862.91978606 -0.12473517 1863.87572434 -0.12479918 1864.86063045 -0.12486512 C1867 0 1867 0 1868 1 C1868.09862018 2.93814419 1868.12555675 4.87994315 1868.12584114 6.82059479 C1868.12844889 8.09340852 1868.13105664 9.36622226 1868.13374341 10.67760611 C1868.13158088 12.10851652 1868.1293242 13.53942678 1868.12698364 14.97033691 C1868.12813448 16.47603979 1868.12972174 17.98174239 1868.13171089 19.4874444 C1868.13590941 23.64483643 1868.13381118 27.80220569 1868.13072467 31.95959783 C1868.1284729 36.43544375 1868.13194906 40.91128561 1868.13470459 45.38713074 C1868.13916369 54.16314505 1868.1381852 62.93915084 1868.13529195 71.7151655 C1868.13303846 78.84423478 1868.13272516 85.97330167 1868.13381577 93.10237122 C1868.13404561 94.62124518 1868.13404561 94.62124518 1868.13428011 96.17080346 C1868.13459982 98.22750119 1868.13492403 100.28419893 1868.1352527 102.34089667 C1868.1381079 121.65080785 1868.13481984 140.96071429 1868.12945233 160.2706247 C1868.12498426 176.8586415 1868.12576018 193.4466513 1868.13037109 210.03466797 C1868.13571615 229.27296422 1868.13783321 248.51125631 1868.13475883 267.7495532 C1868.13444026 269.79891173 1868.13412589 271.84827026 1868.13381577 273.89762878 C1868.13366149 274.90609333 1868.13350721 275.91455788 1868.13334826 276.95358196 C1868.1324829 284.07849677 1868.13394639 291.20340896 1868.13629532 298.32832336 C1868.13909276 307.00488081 1868.13835625 315.68142921 1868.13301457 324.35798562 C1868.1303768 328.78940462 1868.12937377 333.22080849 1868.13266373 337.6522274 C1868.13562514 341.70220937 1868.1340365 345.75216208 1868.12868617 349.80214137 C1868.12756132 351.27385545 1868.12815466 352.74557196 1868.13056196 354.2172845 C1868.13356547 356.20465642 1868.12991287 358.19203519 1868.12584114 360.17940521 C1868.12567879 361.28726678 1868.12551644 362.39512836 1868.12534916 363.53656149 C1868 366 1868 366 1867 367 C1865.32378388 367.09799385 1863.64339855 367.1250947 1861.96432045 367.12514383 C1860.86317243 367.12760233 1859.76202441 367.13006084 1858.62750827 367.13259384 C1857.3993094 367.13020309 1856.17111054 367.12781235 1854.90569353 367.12534916 C1853.60804386 367.12675148 1852.3103942 367.1281538 1850.97342181 367.12959861 C1847.33248291 367.13338736 1843.69157038 367.13086436 1840.05063213 367.12740866 C1836.08956125 367.12474213 1832.12849438 367.12785231 1828.1674239 367.13024551 C1821.18532589 367.13365276 1814.20323566 367.13329754 1807.22113746 367.13056196 C1796.76865599 367.12648509 1786.31618088 367.12813787 1775.86369926 367.1309446 C1758.05391818 367.1355564 1740.24413994 367.13538889 1722.4343586 367.13266373 C1704.37413538 367.12991704 1686.31391405 367.12932845 1668.25369072 367.13140106 C1667.11500296 367.13153023 1665.9763152 367.13165941 1664.80312175 367.13179249 C1660.16578749 367.13232574 1655.52845323 367.13287444 1650.89111898 367.13344277 C1607.64876137 367.13873865 1564.40640503 367.13908793 1521.16404724 367.13629532 C1519.88139512 367.13621252 1518.598743 367.13612973 1517.27722264 367.13604442 C1515.99253412 367.13596149 1514.70784561 367.13587856 1513.38422714 367.13579312 C1474.29623611 367.13327318 1435.20824561 367.13261704 1396.12025452 367.13381577 C1393.50601656 367.13389324 1390.89177861 367.1339704 1388.27754066 367.13404724 C1377.77285259 367.13435768 1367.26816452 367.13467635 1356.76347645 367.135007 C1327.39579715 367.13592415 1298.02811785 367.13649629 1268.66043854 367.13679314 C1267.65751369 367.13680344 1267.65751369 367.13680344 1266.63432774 367.13681395 C1223.31953984 367.13725283 1180.00475213 367.13615123 1136.68996429 367.13394356 C1135.99826182 367.13390844 1135.30655934 367.13387332 1134.59389619 367.13383714 C1111.42382276 367.13266072 1088.25374934 367.13140469 1065.08367591 367.13014051 C995.01188307 367.12631993 924.9400909 367.12422641 799.8025094 367.13025584 C776.6383515 367.13151901 753.47419361 367.1327675 730.31003571 367.13394356 C729.27277614 367.13399642 729.27277614 367.13399642 728.21456183 367.13405036 C684.92289502 367.13625497 641.63122833 367.13723785 598.33956146 367.13679314 C597.67116428 367.13678638 597.00276709 367.13677962 596.31411545 367.13677266 C566.30456512 367.13646597 536.29501481 367.13582723 506.2854645 367.13488263 C495.78998574 367.13455347 485.29450699 367.13424039 474.79902824 367.13393192 C472.18786015 367.13385453 469.57669206 367.1337758 466.96552396 367.13369573 C427.88460821 367.13250054 388.80369304 367.13352166 349.72277736 367.13604442 C348.44012524 367.13612722 347.15747312 367.13621001 345.83595276 367.13629532 C344.55565123 367.136378 343.2753497 367.13646068 341.95625115 367.13654587 C298.84249618 367.13929972 255.72874272 367.13829839 212.61498797 367.13301457 C207.99209507 367.13246218 203.36920218 367.13192548 198.74630928 367.13140106 C197.04442444 367.13120575 197.04442444 367.13120575 195.30815808 367.1310065 C177.29095189 367.12902861 159.27374757 367.13041317 141.25654154 367.13317007 C123.57082884 367.13580544 105.88511932 367.13490501 88.19940703 367.13015598 C77.81078246 367.1274733 67.42216658 367.12756732 57.03354241 367.13163758 C50.15289608 367.13406357 43.27225658 367.13292788 36.39161109 367.12877072 C32.47907102 367.12650985 28.56654836 367.12587375 24.65400901 367.12958724 C20.46742696 367.13352692 16.28088789 367.12987343 12.09430647 367.12534916 C10.86610761 367.12773991 9.63790874 367.13013065 8.37249173 367.13259384 C6.7207697 367.12890609 6.7207697 367.12890609 5.03567955 367.12514383 C4.07983324 367.12511587 3.12398694 367.1250879 2.13917559 367.12505908 C0 367 0 367 -1 366 C-1.09861034 364.06799872 -1.12555673 362.13233207 -1.12584114 360.1978159 C-1.12844889 358.92910225 -1.13105664 357.66038861 -1.13374341 356.35322911 C-1.13158087 354.92693796 -1.1293242 353.50064695 -1.12698364 352.07435608 C-1.12813448 350.57349069 -1.12972175 349.07262558 -1.13171089 347.57176107 C-1.13590941 343.42770121 -1.13381117 339.28366419 -1.13072467 335.13960421 C-1.12847288 330.67805422 -1.13194908 326.2165083 -1.13470459 321.75495911 C-1.13916378 313.00668326 -1.13818513 304.25841596 -1.13529195 295.51013977 C-1.13303835 288.4030089 -1.1327252 281.29588044 -1.13381577 274.18874931 C-1.133969 273.17923076 -1.13412223 272.1697122 -1.13428011 271.12960218 C-1.13459982 269.07910717 -1.13492403 267.02861216 -1.1352527 264.97811716 C-1.13810796 245.72587973 -1.13481982 226.47364704 -1.12945233 207.22141039 C-1.12498493 190.68544634 -1.12575961 174.14948931 -1.13037109 157.61352539 C-1.13571721 138.4341832 -1.13783255 119.25484517 -1.13475883 100.07550234 C-1.13444026 98.03202371 -1.13412589 95.98854508 -1.13381577 93.94506645 C-1.13366149 92.93950673 -1.13350721 91.933947 -1.13334826 90.89791577 C-1.13248317 83.79601309 -1.13394584 76.69411304 -1.13629532 69.59221077 C-1.13909395 60.94203232 -1.13835373 52.29186295 -1.13301457 43.64168555 C-1.13037832 39.2243195 -1.12937121 34.80696861 -1.13266373 30.38960266 C-1.13562828 26.35128768 -1.13403118 22.31300202 -1.12868617 18.27468973 C-1.12756267 16.8083414 -1.12815172 15.34199063 -1.13056196 13.87564386 C-1.13357244 11.89310598 -1.12990774 9.91056124 -1.12584114 7.92802525 C-1.12567879 6.82358116 -1.12551644 5.71913707 -1.12534916 4.58122498 C-1 2 -1 2 0 0 Z M1724 39 C1722.88214111 39.24145752 1722.88214111 39.24145752 1721.74169922 39.48779297 C1705.03684802 43.21709816 1689.2985837 50.14796813 1676 61 C1674.96875 61.7425 1673.9375 62.485 1672.875 63.25 C1660.00112796 75.56413847 1651.7757264 92.90266439 1650.796875 110.69140625 C1650.5279502 132.90011264 1657.6879838 151.95208171 1673.08740234 168.15307617 C1681.54282843 176.63622734 1691.88825941 183.14326524 1702.1875 189.125 C1702.79218109 189.48006622 1703.39686218 189.83513245 1704.01986694 190.20095825 C1714.33830881 196.23730598 1724.9560983 201.44669118 1735.8125 206.4375 C1775.16222172 224.5431302 1775.16222172 224.5431302 1783 242 C1784.25664113 246.24945937 1784.22123838 250.34947164 1784.25 254.75 C1784.2809375 255.91015625 1784.2809375 255.91015625 1784.3125 257.09375 C1784.37418454 266.28474684 1781.17369708 273.25233108 1775 280 C1761.08222398 292.98992428 1739.75826236 293.83078397 1721.6796875 293.34375 C1700.01431415 292.29530469 1673.1675127 286.75458641 1656.375 272 C1655.59125 271.34 1654.8075 270.68 1654 270 C1653.01 270.33 1652.02 270.66 1651 271 C1650.79695785 277.31657912 1650.65698487 283.63231628 1650.56054688 289.95141602 C1650.5203438 292.10017336 1650.46576995 294.24871224 1650.39648438 296.39672852 C1650.29928884 299.48768946 1650.2540438 302.57575738 1650.21875 305.66796875 C1650.17745972 306.62648239 1650.13616943 307.58499603 1650.09362793 308.57255554 C1650.09181549 311.27377763 1650.17387039 313.42618567 1651 316 C1653.38498515 318.35914857 1655.93268626 319.69531408 1659 321 C1660.61068359 321.69609375 1660.61068359 321.69609375 1662.25390625 322.40625 C1703.42960237 336.01805037 1753.85021116 340.24092873 1793.69677734 320.36352539 C1800.93554318 316.58236649 1808.05307557 312.66606352 1814 307 C1814.74121094 306.29875 1815.48242188 305.5975 1816.24609375 304.875 C1830.34925158 290.41510125 1835.71174643 271.85386747 1835.47094727 251.97680664 C1834.62515865 230.18597156 1824.03526743 211.0359611 1808.3125 196.3125 C1791.15751017 180.9028824 1769.24867456 170.09301639 1748.515625 160.4453125 C1711.50231366 143.15300431 1711.50231366 143.15300431 1704.26171875 128.4765625 C1701.03137448 119.5756139 1700.39560441 108.99182239 1703.8984375 100.0546875 C1709.76295149 89.11591318 1720.55939034 82.7566181 1732 79 C1759.56839473 72.42929452 1789.67063433 75.67154768 1815 88 C1815.9178125 88.5878125 1816.835625 89.175625 1817.78125 89.78125 C1818.5134375 90.1834375 1819.245625 90.585625 1820 91 C1820.99 90.67 1821.98 90.34 1823 90 C1823.09878601 83.93111949 1823.17142949 77.86270561 1823.21972656 71.79321289 C1823.23985731 69.72802582 1823.26716445 67.66289584 1823.30175781 65.59790039 C1823.35021162 62.63152999 1823.37295385 59.66591228 1823.390625 56.69921875 C1823.41127014 55.7741301 1823.43191528 54.84904144 1823.45318604 53.8959198 C1823.60748966 48.98702408 1823.60748966 48.98702408 1821.1796875 44.97387695 C1793.13577708 32.44395327 1753.64088276 32.32699107 1724 39 Z M34 43 C33.69708522 45.15169454 33.69708522 45.15169454 33.74831772 47.67584229 C33.74310222 48.66787533 33.73788673 49.65990837 33.73251319 50.68200302 C33.73697463 51.77984241 33.74143608 52.87768181 33.74603271 54.00878906 C33.74291273 55.16881565 33.73979275 56.32884224 33.73657823 57.52402115 C33.72995917 60.75373908 33.73237121 63.9833079 33.73855066 67.21302223 C33.74305995 70.69227538 33.736099 74.17150776 33.73059082 77.65075684 C33.72167881 84.47048735 33.72362684 91.29017394 33.7294161 98.1099062 C33.7339255 103.6504636 33.73454863 109.19100867 33.73236847 114.73156738 C33.732062 115.51892155 33.73175554 116.30627572 33.73143978 117.1174891 C33.73080036 118.71678257 33.73015193 120.31607604 33.7294946 121.91536951 C33.72378601 136.92613261 33.73035748 151.93687131 33.74109533 166.94763041 C33.75003133 179.83879707 33.74847943 192.72992773 33.73925781 205.62109375 C33.7285645 220.57667001 33.72433539 235.53222487 33.73048234 250.48780441 C33.73111947 252.08134714 33.73174821 253.67488988 33.73236847 255.26843262 C33.73267702 256.05256853 33.73298557 256.83670445 33.73330347 257.64460206 C33.73503324 263.18108269 33.73210927 268.71754979 33.72740936 274.25402832 C33.72181094 280.99745098 33.723295 287.74082705 33.73397085 294.48424435 C33.73924163 297.92748518 33.74126055 301.37064823 33.73467255 304.81388855 C33.72924944 308.53974156 33.73601178 312.26537229 33.74603271 315.99121094 C33.74157127 317.08905033 33.73710983 318.18688972 33.73251319 319.31799698 C33.73772868 320.31003002 33.74294418 321.30206306 33.74831772 322.32415771 C33.74864242 323.18503872 33.74896713 324.04591972 33.74930167 324.93288803 C33.81135928 327.22257888 33.81135928 327.22257888 36 329 C38.81213857 329.19883531 41.52579575 329.27267737 44.33911133 329.25878906 C45.63494392 329.26404602 45.63494392 329.26404602 46.95695496 329.26940918 C49.83206082 329.2782538 52.70692256 329.27235807 55.58203125 329.265625 C57.59152778 329.26697319 59.60102399 329.26891501 61.61051941 329.27142334 C65.84169593 329.27438017 70.07278832 329.27006763 74.30395508 329.26074219 C79.66701838 329.24948602 85.02987842 329.25581422 90.39293385 329.26788712 C94.55687409 329.27521039 98.72076847 329.27276821 102.88471031 329.26763153 C104.85739861 329.26631642 106.83009136 329.26786579 108.80277443 329.27259064 C125.78202622 329.30426454 143.26803028 329.03684295 159.8125 324.8125 C160.67085449 324.59964355 161.52920898 324.38678711 162.41357422 324.16748047 C187.30934187 317.66268101 207.41206361 303.48203187 220.51953125 281.4453125 C230.07949933 263.82724444 231.40676688 243.06596743 226 224 C220.68707487 206.35275458 210.2505285 193.52952343 194.16796875 184.6015625 C184.67352901 179.80166078 175.57018134 177.15908699 165 176 C167.25167255 173.44095628 169.0999891 172.44403724 172.3125 171.375 C188.34664573 165.20982408 201.64356723 153.61484855 209 138 C215.7594261 121.47414401 218.52653265 105.36910263 213 88 C212.73316406 87.14664063 212.46632813 86.29328125 212.19140625 85.4140625 C206.58684978 69.62166784 193.74529678 58.21688821 179 51 C163.11749173 43.9258943 146.79764852 40.84635218 129.46313477 40.85473633 C128.45066177 40.85137772 127.43818878 40.8480191 126.39503479 40.84455872 C123.07714587 40.83512468 119.75930771 40.83311019 116.44140625 40.83203125 C114.12735473 40.82881614 111.81330341 40.82545187 109.49925232 40.82194519 C104.66526823 40.81597484 99.83130197 40.81410341 94.99731445 40.81469727 C88.79073022 40.8147994 82.58425908 40.8010856 76.37770176 40.78392506 C71.60720793 40.7728394 66.83674189 40.77077691 62.0662365 40.77130699 C59.77640323 40.77012405 57.48656932 40.76568482 55.19674873 40.75797462 C52.00811762 40.74823332 48.81973824 40.7510282 45.63110352 40.75708008 C44.67995667 40.75146057 43.72880981 40.74584106 42.74884033 40.74005127 C41.88402542 40.74424576 41.01921051 40.74844025 40.12818909 40.75276184 C39.37479028 40.75221707 38.62139147 40.75167231 37.84516239 40.75111103 C35.75225014 40.84359199 35.75225014 40.84359199 34 43 Z M283 43 C282.69708522 45.15169454 282.69708522 45.15169454 282.74831772 47.67584229 C282.74310222 48.66787533 282.73788673 49.65990837 282.73251319 50.68200302 C282.73697463 51.77984241 282.74143608 52.87768181 282.74603271 54.00878906 C282.74291273 55.16881565 282.73979275 56.32884224 282.73657823 57.52402115 C282.72995917 60.75373908 282.73237121 63.9833079 282.73855066 67.21302223 C282.74305995 70.69227538 282.736099 74.17150776 282.73059082 77.65075684 C282.72167881 84.47048735 282.72362684 91.29017394 282.7294161 98.1099062 C282.7339255 103.6504636 282.73454863 109.19100867 282.73236847 114.73156738 C282.732062 115.51892155 282.73175554 116.30627572 282.73143978 117.1174891 C282.73080036 118.71678257 282.73015193 120.31607604 282.7294946 121.91536951 C282.72378601 136.92613261 282.73035748 151.93687131 282.74109533 166.94763041 C282.75003133 179.83879707 282.74847943 192.72992773 282.73925781 205.62109375 C282.7285645 220.57667001 282.72433539 235.53222487 282.73048234 250.48780441 C282.73111947 252.08134714 282.73174821 253.67488988 282.73236847 255.26843262 C282.73267702 256.05256853 282.73298557 256.83670445 282.73330347 257.64460206 C282.73503324 263.18108269 282.73210927 268.71754979 282.72740936 274.25402832 C282.72181094 280.99745098 282.723295 287.74082705 282.73397085 294.48424435 C282.73924163 297.92748518 282.74126055 301.37064823 282.73467255 304.81388855 C282.72924944 308.53974156 282.73601178 312.26537229 282.74603271 315.99121094 C282.74157127 317.08905033 282.73710983 318.18688972 282.73251319 319.31799698 C282.73772868 320.31003002 282.74294418 321.30206306 282.74831772 322.32415771 C282.74864242 323.18503872 282.74896713 324.04591972 282.74930167 324.93288803 C282.81135928 327.22257888 282.81135928 327.22257888 285 329 C287.82170271 329.30560103 287.82170271 329.30560103 291.18737793 329.25396729 C291.82879337 329.25708727 292.47020881 329.26020725 293.13106108 329.26342177 C295.28994026 329.27142756 297.44854037 329.26506828 299.60742188 329.25878906 C301.15125189 329.26149779 302.6950806 329.26505805 304.23890686 329.26940918 C308.43923404 329.2785496 312.63946329 329.27498216 316.83979225 329.26865101 C321.22844336 329.26359954 325.61708588 329.26828008 330.0057373 329.27142334 C337.37672435 329.27506548 344.74767137 329.27025739 352.11865234 329.26074219 C360.64947006 329.24985716 369.18019219 329.25338256 377.7110076 329.264395 C385.02567665 329.27346082 392.34031687 329.27475661 399.65498972 329.26951766 C404.02797927 329.26639407 408.40092384 329.26599924 412.77391052 329.27259064 C416.88443429 329.27835325 420.99483441 329.27438722 425.10534477 329.26280212 C426.61708305 329.26014971 428.12883167 329.26093049 429.64056587 329.26532745 C431.6980601 329.27076161 433.75515364 329.26397525 435.81262207 329.25396729 C436.96595284 329.25321323 438.1192836 329.25245918 439.30756378 329.25168228 C442.15066839 329.2748155 442.15066839 329.2748155 444 327 C444.19982025 324.22664573 444.279792 321.55530357 444.265625 318.78125 C444.26849518 317.56072937 444.26849518 317.56072937 444.27142334 316.31555176 C444.27278527 314.593991 444.26908828 312.87241997 444.26074219 311.15087891 C444.25004258 308.5105083 444.260637 305.87081811 444.2734375 303.23046875 C444.27211591 301.55989433 444.26955352 299.88932033 444.265625 298.21875 C444.27169769 297.02965027 444.27169769 297.02965027 444.27789307 295.81652832 C444.41104123 291.44072573 444.41104123 291.44072573 442 288 C439.92674379 287.70220564 439.92674379 287.70220564 437.50753784 287.75949097 C436.56240326 287.75674164 435.61726868 287.75399231 434.64349365 287.75115967 C433.08335541 287.7619455 433.08335541 287.7619455 431.49169922 287.77294922 C430.39900726 287.77265717 429.30631531 287.77236511 428.18051147 287.77206421 C424.55515708 287.77346175 420.93000615 287.78904301 417.3046875 287.8046875 C414.79647941 287.80841612 412.28826988 287.8112638 409.78005981 287.81326294 C403.84437714 287.82012881 397.90876016 287.83590472 391.97311127 287.85596192 C383.36884855 287.88440689 374.76456096 287.89490855 366.16026306 287.90757751 C354.10678119 287.92699378 342.05349122 287.96530815 330 288 C330 259.95 330 231.9 330 203 C340.46847656 203.03480469 340.46847656 203.03480469 351.1484375 203.0703125 C355.55989953 203.08052704 359.97134706 203.09015465 364.3828125 203.09765625 C371.39065566 203.10962922 378.39844674 203.1238194 385.40625 203.15087891 C391.05370277 203.1725501 396.70109972 203.18455651 402.34859085 203.18975449 C404.50724797 203.19346056 406.6659019 203.20069719 408.82453537 203.21146011 C411.8393091 203.22589897 414.85384981 203.22798114 417.86865234 203.22705078 C419.21839897 203.23783661 419.21839897 203.23783661 420.59541321 203.24884033 C425.28016062 203.46343518 425.28016062 203.46343518 429 201 C429.19973733 198.29864677 429.27981573 195.70202789 429.265625 193 C429.26849518 191.81277344 429.26849518 191.81277344 429.27142334 190.6015625 C429.27278518 188.9270801 429.26908882 187.25258715 429.26074219 185.578125 C429.2500424 183.01017619 429.26063725 180.44292697 429.2734375 177.875 C429.2721159 176.24999845 429.26955351 174.62499734 429.265625 173 C429.27169769 171.84371094 429.27169769 171.84371094 429.27789307 170.6640625 C429.39644711 166.36870563 429.39644711 166.36870563 427 163 C423.92612331 162.81154873 420.94295151 162.74838249 417.86865234 162.77294922 C416.44906975 162.77251114 416.44906975 162.77251114 415.00080872 162.77206421 C411.86242609 162.7734612 408.72427882 162.78903976 405.5859375 162.8046875 C403.4140333 162.80841632 401.24212743 162.81126391 399.07022095 162.81326294 C393.34581888 162.82090973 387.62151784 162.84056719 381.89715576 162.8626709 C375.03312264 162.88669805 368.16905579 162.89590533 361.30499268 162.90757751 C350.86992479 162.92699097 340.4350787 162.96530635 330 163 C330 135.94 330 108.88 330 81 C341.44300781 81.03480469 341.44300781 81.03480469 353.1171875 81.0703125 C357.93880547 81.08052682 362.76041017 81.09015442 367.58203125 81.09765625 C375.24172726 81.10963004 382.90137564 81.12382245 390.56103516 81.15087891 C396.73367969 81.17254725 402.90627317 81.18455591 409.07895279 81.18975449 C411.4385674 81.19346107 413.79817909 81.20069867 416.15777206 81.21146011 C419.45273718 81.22589516 422.74748903 81.2279813 426.04248047 81.22705078 C427.0264682 81.23424133 428.01045593 81.24143188 429.02426147 81.24884033 C430.36623596 81.24471634 430.36623596 81.24471634 431.73532104 81.24050903 C432.90507634 81.24327441 432.90507634 81.24327441 434.09846306 81.24609566 C436.24153833 81.16546297 436.24153833 81.16546297 438 79 C438.19973733 76.29864677 438.27981573 73.70202789 438.265625 71 C438.26849518 69.81277344 438.26849518 69.81277344 438.27142334 68.6015625 C438.27278518 66.9270801 438.26908882 65.25258715 438.26074219 63.578125 C438.2500424 61.01017619 438.26063725 58.44292697 438.2734375 55.875 C438.2721159 54.24999845 438.26955351 52.62499734 438.265625 51 C438.27169769 49.84371094 438.27169769 49.84371094 438.27789307 48.6640625 C438.39644711 44.36870563 438.39644711 44.36870563 436 41 C433.27888111 40.69461733 433.27888111 40.69461733 430.04040527 40.74603271 C428.770009 40.74039307 427.49961273 40.73475342 426.1907196 40.72894287 C424.7749323 40.73283184 423.35914555 40.7369282 421.94335938 40.74121094 C420.45864185 40.73850215 418.97392566 40.73494185 417.48921204 40.73059082 C413.45003546 40.72145114 409.41096073 40.72501754 405.3717823 40.73134899 C401.15129439 40.73640084 396.93081539 40.73171982 392.71032715 40.72857666 C385.62181019 40.72493463 378.53333486 40.72974231 371.44482422 40.73925781 C363.24119464 40.75014283 355.03766447 40.74661741 346.8340373 40.735605 C339.79962038 40.72653886 332.76523343 40.72524354 325.73081255 40.73048234 C321.52549643 40.73360576 317.32022708 40.73400123 313.11491394 40.72740936 C309.16197731 40.72164629 305.20916926 40.72561362 301.25624657 40.73719788 C299.80256044 40.73985005 298.34886355 40.73906992 296.89518166 40.73467255 C294.91665652 40.72923782 292.93810783 40.73724954 290.95959473 40.74603271 C289.85051003 40.74678677 288.74142532 40.74754082 287.59873199 40.74831772 C284.83848729 40.73774556 284.83848729 40.73774556 283 43 Z M465 41 C463.91952897 44.25166783 464.07716741 46.07385643 465.20898438 49.28564453 C465.50156128 50.13236725 465.79413818 50.97908997 466.09558105 51.85147095 C466.42497681 52.76931366 466.75437256 53.68715637 467.09375 54.6328125 C467.43184692 55.60100922 467.76994385 56.56920593 468.11828613 57.56674194 C469.23522159 60.7565529 470.36741036 63.94071713 471.5 67.125 C472.27946948 69.34020514 473.05810685 71.55570325 473.8359375 73.77148438 C476.20905983 80.51963875 478.60328862 87.26019532 481 94 C481.71238527 96.00743528 482.42463064 98.01492022 483.13671875 100.02246094 C489.35114078 117.53306376 495.61823549 135.02531646 501.94921875 152.49414062 C505.37506146 161.96941445 508.68028251 171.48717191 512 181 C512.37310303 182.06905579 512.74620605 183.13811157 513.13061523 184.23956299 C514.79889371 189.02004669 516.46692871 193.80061528 518.13476562 198.58125305 C526.49750354 222.55169537 534.86726698 246.51970094 543.28259277 270.47174072 C544.08337838 272.7514464 544.88360575 275.03134825 545.68322754 277.3114624 C549.5868062 288.44012212 553.51630502 299.55063002 557.71777344 310.57080078 C559.55376746 315.48100109 561.24231647 320.43644902 562.921875 325.40234375 C563.72359661 328.13457763 563.72359661 328.13457763 566 329 C567.58703199 329.11024945 569.178531 329.1591001 570.76928711 329.17700195 C571.76049057 329.18983719 572.75169403 329.20267242 573.77293396 329.21589661 C575.38386681 329.22697701 575.38386681 329.22697701 577.02734375 329.23828125 C578.12720108 329.246353 579.22705841 329.25442474 580.36024475 329.26274109 C582.68960998 329.27658675 585.01899555 329.28730674 587.34838867 329.29516602 C590.91949539 329.31241304 594.48968471 329.35629982 598.06054688 329.40039062 C600.32030567 329.41051419 602.58007236 329.41903134 604.83984375 329.42578125 C606.44774025 329.45204338 606.44774025 329.45204338 608.08811951 329.47883606 C609.08247513 329.47591049 610.07683075 329.47298492 611.10131836 329.4699707 C612.41464394 329.47877007 612.41464394 329.47877007 613.75450134 329.48774719 C616.14636734 329.18967651 616.14636734 329.18967651 617.72418213 327.17260742 C619.45907996 324.21822655 620.55392392 321.117691 621.64453125 317.88671875 C621.8903746 317.17825806 622.13621796 316.46979736 622.38951111 315.73986816 C622.92262468 314.20137075 623.45253781 312.66176143 623.97961426 311.1211853 C625.42112472 306.90910356 626.88665377 302.70535123 628.34765625 298.5 C628.65029388 297.6265947 628.95293152 296.75318939 629.26473999 295.85331726 C632.35691008 286.93950186 635.54818197 278.06238646 638.75 269.1875 C644.91913385 252.06737246 650.99998921 234.91658432 657.05175781 217.75463867 C661.03869126 206.46021216 665.11111701 195.20195052 669.27218628 183.97058105 C670.8961837 179.57355135 672.4800487 175.16210925 674.0625 170.75 C674.42698242 169.73591064 674.79146484 168.72182129 675.16699219 167.67700195 C676.44567014 164.11836293 677.72303436 160.5592537 679 157 C679.25134705 156.29945496 679.50269409 155.59890991 679.76165771 154.87713623 C680.30253051 153.36963058 680.84339849 151.86212321 681.38426208 150.35461426 C682.54092057 147.13081222 683.69766839 143.90704224 684.85446167 140.68328857 C685.45194756 139.01814661 686.04937993 137.35298545 686.64675903 135.68780518 C689.94834156 126.48527194 693.25508302 117.28465248 696.578125 108.08984375 C696.86774109 107.28844467 697.15735718 106.48704559 697.45574951 105.66136169 C698.82322255 101.87824622 700.19168643 98.09549254 701.56152344 94.31323242 C706.60056661 80.39004733 711.5201288 66.42595184 716.375 52.4375 C716.72949219 51.41720703 717.08398438 50.39691406 717.44921875 49.34570312 C718.29985019 46.89726399 719.15011386 44.44869791 720 42 C718.419662 40.419662 716.81260917 40.85704617 714.61962891 40.83886719 C713.68841217 40.82925964 712.75719543 40.8196521 711.79776001 40.80975342 C710.78426483 40.80550354 709.77076965 40.80125366 708.7265625 40.796875 C707.69187836 40.79117493 706.65719421 40.78547485 705.59115601 40.77960205 C703.39704415 40.77013567 701.20291797 40.7636116 699.00878906 40.75976562 C695.64623273 40.75006128 692.28428767 40.71905343 688.921875 40.6875 C686.79427448 40.68097024 684.66666957 40.67571966 682.5390625 40.671875 C681.52961578 40.6595282 680.52016907 40.6471814 679.48013306 40.63446045 C678.542612 40.63746155 677.60509094 40.64046265 676.63916016 40.64355469 C675.81388824 40.63990906 674.98861633 40.63626343 674.13833618 40.63250732 C671.33188941 41.11482093 670.77269533 41.76074821 669 44 C667.98925003 46.4702841 667.10835211 48.88286737 666.28356934 51.41430664 C666.02741993 52.17621716 665.77127053 52.93812769 665.50735903 53.72312641 C664.64930937 56.28268632 663.8042167 58.84633779 662.95898438 61.41015625 C662.34662008 63.24566738 661.73347197 65.08091716 661.11959839 66.91592407 C659.44972995 71.91523418 657.79112896 76.91821815 656.1346035 81.92196274 C654.38950581 87.1873957 652.63464248 92.44957251 650.88098145 97.7121582 C647.92602319 106.58443177 644.97784054 115.45893306 642.03417969 124.33496094 C638.29176424 135.61936966 634.53857809 146.90016299 630.78170013 158.17976379 C627.52141143 167.96870008 624.26621131 177.75932738 621.01178169 187.55021286 C619.98294427 190.64480571 618.95345603 193.73918146 617.9238739 196.83352661 C611.6579204 215.67151926 605.40475688 234.51394961 599.40809727 253.43976784 C598.93822055 254.92219039 598.46679982 256.40412465 597.99364376 257.88550377 C595.74229849 264.94635008 593.60076257 271.90963202 592.46794891 279.25248718 C592.2363142 280.11750603 592.2363142 280.11750603 592 281 C591.34 281.33 590.68 281.66 590 282 C589.97421875 281.45214844 589.9484375 280.90429688 589.921875 280.33984375 C588.84486621 265.28619817 583.05390813 250.71795205 578.34609985 236.49871826 C576.44944127 230.76908469 574.56679638 225.03484888 572.68359375 219.30078125 C572.29660812 218.12330322 571.9096225 216.9458252 571.51091003 215.73266602 C566.70572208 201.0906124 562.02812956 186.407851 557.35449219 171.72338867 C554.1195141 161.56725554 550.83340745 151.4323259 547.44555664 141.32617188 C544.93720958 133.83716804 542.50261914 126.32394538 540.0625 118.8125 C539.65804657 117.56895752 539.65804657 117.56895752 539.24542236 116.30029297 C535.77302917 105.62066066 532.33285349 94.93112362 528.92578125 84.23046875 C528.58718582 83.16729935 528.24859039 82.10412994 527.8997345 81.00874329 C526.24230437 75.8022403 524.58795789 70.59478098 522.93774414 65.38598633 C522.33092692 63.4760631 521.72407634 61.56615047 521.1171875 59.65625 C520.84582474 58.79642014 520.57446198 57.93659027 520.2948761 57.05070496 C518.67846022 51.97068914 517.03772438 46.92838496 515 42 C512.58225419 40.79112709 511.06668936 40.87940657 508.36669922 40.88647461 C507.40585419 40.88655014 506.44500916 40.88662567 505.45504761 40.88670349 C503.89561935 40.89444542 503.89561935 40.89444542 502.3046875 40.90234375 C501.24210724 40.9037587 500.17952698 40.90517365 499.08474731 40.90663147 C495.68146991 40.91224166 492.27825762 40.92479591 488.875 40.9375 C486.57161553 40.94251369 484.26823003 40.94707682 481.96484375 40.95117188 C476.30987351 40.9622144 470.65494141 40.97896248 465 41 Z M743 43 C742.80026267 45.70135323 742.72018427 48.29797211 742.734375 51 C742.73150482 52.18722656 742.73150482 52.18722656 742.72857666 53.3984375 C742.72721482 55.0729199 742.73091118 56.74741285 742.73925781 58.421875 C742.7499576 60.98982381 742.73936275 63.55707303 742.7265625 66.125 C742.7278841 67.75000155 742.73044649 69.37500266 742.734375 71 C742.73032654 71.77085937 742.72627808 72.54171875 742.72210693 73.3359375 C742.60355289 77.63129437 742.60355289 77.63129437 745 81 C747.57582057 81.31529522 747.57582057 81.31529522 750.63137817 81.2784729 C751.82893738 81.28963638 753.02649658 81.30079987 754.26034546 81.31230164 C755.594299 81.31466682 756.9282529 81.31684243 758.26220703 81.31884766 C759.66150495 81.32814192 761.0607973 81.33830984 762.46008301 81.34928894 C766.26561649 81.37665971 770.07111281 81.39175919 773.876719 81.40471697 C777.851277 81.42031667 781.82575876 81.44711689 785.80026245 81.4727478 C793.3296019 81.51959174 800.85895559 81.55630859 808.38836658 81.58942068 C816.9590345 81.62760249 825.52962596 81.6770229 834.1002295 81.72740483 C851.73343042 81.83080816 869.36667797 81.92004115 887 82 C885.6227212 84.8041185 884.15198536 87.37205512 882.3828125 89.94921875 C881.86468994 90.70581787 881.34656738 91.46241699 880.81274414 92.24194336 C880.25578857 93.04897705 879.69883301 93.85601074 879.125 94.6875 C878.54419678 95.53256104 877.96339355 96.37762207 877.36499023 97.24829102 C872.65889512 104.08033761 867.88671932 110.86433977 863.08984375 117.6328125 C859.75017104 122.34676106 856.43614863 127.0784883 853.125 131.8125 C852.54129639 132.6468457 851.95759277 133.48119141 851.35620117 134.34082031 C849.5705204 136.89368426 847.78519731 139.44679795 846 142 C838.86446619 152.20529182 831.72189219 162.40510455 824.53417969 172.57373047 C818.92414591 180.51479808 813.35389765 188.48365319 807.78222656 196.45166016 C804.27493444 201.46660744 800.76463287 206.47944858 797.25488281 211.49267578 C794.3121436 215.69623647 791.37015906 219.90032141 788.4296875 224.10546875 C782.48305871 232.60810465 776.52321098 241.10090706 770.53417969 249.57373047 C765.53282365 256.65320771 760.56316723 263.75472709 755.59765625 270.859375 C752.53841507 275.23521984 749.46485007 279.60080676 746.38671875 283.96337891 C744.60658356 286.49969037 742.8473981 289.04957338 741.08984375 291.6015625 C739.32294853 294.15785313 737.54315828 296.55583632 735.56640625 298.9609375 C729.11609828 307.18929817 729.79358439 317.9736372 731 328 C732.83512125 329.83512125 735.4088085 329.12809035 737.85166925 329.1384055 C738.69950985 329.1368569 739.54735044 329.1353083 740.42088318 329.13371277 C741.31462444 329.13597833 742.2083657 329.13824388 743.12919003 329.14057809 C746.14790711 329.14694861 749.16657964 329.14608678 752.18530273 329.14526367 C754.33981383 329.14825326 756.49432439 329.15165531 758.64883423 329.15544128 C764.51855967 329.16430574 770.38827055 329.16662042 776.25800204 329.16725707 C781.14899128 329.16820408 786.03997708 329.17187995 790.93096501 329.17542917 C802.46480199 329.18358296 813.99863117 329.18601255 825.5324707 329.18530273 C837.4515959 329.18470164 849.37067587 329.19525775 861.28978962 329.2110464 C871.50462065 329.22409797 881.71943685 329.22948764 891.93427616 329.22884732 C898.04326626 329.22859164 904.15221621 329.23148136 910.26119804 329.24202538 C916.00421139 329.25166643 921.74714586 329.25181315 927.4901619 329.24450874 C929.60338645 329.24345792 931.71661582 329.24585502 933.82983208 329.2518692 C936.70402693 329.25952213 939.57794481 329.25498916 942.45213318 329.24723816 C943.72054799 329.2549535 943.72054799 329.2549535 945.01458734 329.26282471 C949.47951507 329.42575974 949.47951507 329.42575974 953 327 C953.19982025 324.22664573 953.279792 321.55530357 953.265625 318.78125 C953.26849518 317.56072937 953.26849518 317.56072937 953.27142334 316.31555176 C953.27278527 314.593991 953.26908828 312.87241997 953.26074219 311.15087891 C953.25004258 308.5105083 953.260637 305.87081811 953.2734375 303.23046875 C953.27211591 301.55989433 953.26955352 299.88932033 953.265625 298.21875 C953.27169769 297.02965027 953.27169769 297.02965027 953.27789307 295.81652832 C953.41104123 291.44072573 953.41104123 291.44072573 951 288 C948.25649976 287.68427721 948.25649976 287.68427721 944.98898315 287.7215271 C943.70728241 287.71036362 942.42558167 287.69920013 941.1050415 287.68769836 C939.67663603 287.68533316 938.24823024 287.68315756 936.81982422 287.68115234 C935.32200577 287.67185846 933.82419253 287.6616906 932.3263855 287.65071106 C928.25226477 287.62333604 924.17817875 287.60823954 920.10399008 287.59528303 C915.84916276 287.57968519 911.5944067 287.55288438 907.33963013 287.5272522 C899.2790493 287.48040496 891.21845515 287.4436897 883.15780747 287.41057932 C873.9825592 287.37239985 864.80738239 287.32297882 855.63219428 287.27259517 C836.75484843 287.16918693 817.87745901 287.07995554 799 287 C800.10702553 285.25125985 801.21525081 283.50327916 802.32397461 281.75561523 C802.9409874 280.78212631 803.55800018 279.80863739 804.19371033 278.8056488 C806.54831117 275.14832676 809.02951985 271.59747967 811.5625 268.0625 C812.60455304 266.59662875 813.64620238 265.13047047 814.6875 263.6640625 C815.22632813 262.90641602 815.76515625 262.14876953 816.3203125 261.36816406 C819.25098404 257.23625797 822.15751 253.08748571 825.0625 248.9375 C825.65635498 248.08913574 826.25020996 247.24077148 826.86206055 246.36669922 C830.83036404 240.69020731 834.76650797 234.99260609 838.68261719 229.2800293 C848.42674577 215.0771704 858.31299399 200.97176782 868.19580078 186.86523438 C873.66680436 179.05356808 879.10685216 171.22116112 884.5 163.35546875 C889.62904104 155.87683754 894.79243444 148.42422789 900 141 C904.15192651 135.08066534 908.28760517 129.15159451 912.375 123.1875 C916.8286036 116.69047827 921.31422358 110.2161722 925.8125 103.75 C926.49030518 102.77538818 927.16811035 101.80077637 927.86645508 100.79663086 C931.81303422 95.12685122 935.77557007 89.46874546 939.75610352 83.82275391 C941.50982552 81.32502144 943.24615887 78.8159215 944.98046875 76.3046875 C946.73216559 73.77427733 948.50926314 71.35870568 950.42578125 68.9453125 C956.40578152 61.05986125 956.12113328 52.51475059 955 43 C952.44548876 40.44548876 950.79019154 40.75749035 947.3071537 40.73251319 C946.50502638 40.73697463 945.70289906 40.74143608 944.87646484 40.74603271 C943.60194993 40.74135274 943.60194993 40.74135274 942.30168724 40.73657823 C939.43803463 40.72856396 936.57459191 40.73493515 933.7109375 40.74121094 C931.66465124 40.7385026 929.61836595 40.73494255 927.57208252 40.73059082 C922.00197221 40.72144589 916.43193569 40.72501972 910.86182404 40.73134899 C905.04378555 40.73639812 899.22575356 40.73172058 893.40771484 40.72857666 C883.6357306 40.72493383 873.86377654 40.7297444 864.09179688 40.73925781 C852.77987689 40.75014296 841.468029 40.7466176 830.15611076 40.735605 C820.45929788 40.72654113 810.76250675 40.72524243 801.06569099 40.73048234 C795.26747582 40.733607 789.46929457 40.73399782 783.67108154 40.72740936 C778.22106283 40.72164959 772.77113743 40.72560761 767.32112885 40.73719788 C765.31594752 40.73985181 763.3107584 40.73906695 761.30558014 40.73467255 C758.57812428 40.72924448 755.85097146 40.73601767 753.12353516 40.74603271 C751.92034417 40.73934055 751.92034417 40.73934055 750.6928463 40.73251319 C746.38215985 40.60148956 746.38215985 40.60148956 743 43 Z M1074.92407227 43.21044922 C1074.61912842 44.13100098 1074.31418457 45.05155273 1074 46 C1073.63704834 46.83354004 1073.27409668 47.66708008 1072.90014648 48.52587891 C1072.39076538 49.86271729 1072.39076538 49.86271729 1071.87109375 51.2265625 C1071.48155518 52.24314941 1071.0920166 53.25973633 1070.69067383 54.30712891 C1070.27712646 55.40202637 1069.8635791 56.49692383 1069.4375 57.625 C1068.99623779 58.78306152 1068.55497559 59.94112305 1068.1003418 61.13427734 C1064.71706986 70.03889035 1061.39846065 78.96725815 1058.10327148 87.90478516 C1054.27493884 98.28473528 1050.38982755 108.6429698 1046.5 119 C1040.04088778 136.20276285 1033.59221949 153.40975712 1027.29296875 170.671875 C1023.22787313 181.79856617 1019.00648153 192.86351221 1014.76760864 203.92486572 C1008.68112034 219.80815691 1002.66356501 235.71577148 996.8125 251.6875 C993.64279878 260.33904421 990.3754277 268.95308749 987.10873413 277.56832886 C986.19114915 279.99036777 985.27552306 282.41313766 984.3605957 284.83618164 C983.75475303 286.44027938 983.14887751 288.04436472 982.54296875 289.6484375 C982.24455582 290.43852707 981.94614288 291.22861664 981.63868713 292.04264832 C979.96362972 296.47161125 978.27339261 300.89424271 976.56477356 305.31036377 C975.82412128 307.22861308 975.08922413 309.14895035 974.35668945 311.0703125 C973.47151462 313.3895757 972.57597941 315.70491894 971.66870117 318.015625 C971.09019409 319.54316406 971.09019409 319.54316406 970.5 321.1015625 C970.1596875 321.98150879 969.819375 322.86145508 969.46875 323.76806641 C969.3140625 324.50460449 969.159375 325.24114258 969 326 C969.99 327.485 969.99 327.485 971 329 C973.07212772 329.45741891 973.07212772 329.45741891 975.49389648 329.38818359 C976.42503769 329.39764008 977.35617889 329.40709656 978.3155365 329.4168396 C979.82803734 329.40773056 979.82803734 329.40773056 981.37109375 329.3984375 C982.92099754 329.40274277 982.92099754 329.40274277 984.50221252 329.40713501 C986.69036404 329.40917913 988.87853369 329.40362505 991.06665039 329.39111328 C994.42050001 329.37508126 997.77314146 329.39094235 1001.12695312 329.41015625 C1003.25000267 329.40817356 1005.37305146 329.40432936 1007.49609375 329.3984375 C1009.00555824 329.40754654 1009.00555824 329.40754654 1010.54551697 329.4168396 C1011.47981033 329.40738312 1012.4141037 329.39792664 1013.37670898 329.38818359 C1014.19896469 329.38579681 1015.0212204 329.38341003 1015.86839294 329.38095093 C1018.54787235 328.90208679 1019.36318998 328.14616145 1021 326 C1021.91685695 324.1797298 1021.91685695 324.1797298 1022.57470703 322.140625 C1022.84574249 321.36710693 1023.11677795 320.59358887 1023.39602661 319.79663086 C1023.68041595 318.95624268 1023.9648053 318.11585449 1024.2578125 317.25 C1024.56516327 316.3638501 1024.87251404 315.4777002 1025.18917847 314.56469727 C1026.17596598 311.71254534 1027.15048147 308.85636408 1028.125 306 C1028.75704597 304.17030795 1029.38985196 302.34087825 1030.0234375 300.51171875 C1035.12666824 285.71027511 1040.04862401 270.85412797 1045 256 C1082.29 256 1119.58 256 1158 256 C1161.36115979 264.0667835 1164.49290566 272.01235341 1167.28515625 280.265625 C1168.0708903 282.55992092 1168.85669981 284.85419099 1169.64257812 287.1484375 C1170.85768336 290.71130227 1172.07092685 294.27478981 1173.2824707 297.83886719 C1174.46611226 301.31609747 1175.65656756 304.79093991 1176.84765625 308.265625 C1177.38375267 309.85337738 1177.38375267 309.85337738 1177.93067932 311.47320557 C1180.7830878 320.88978802 1180.7830878 320.88978802 1186 329 C1187.50418739 329.09311889 1189.01271356 329.11746028 1190.51977539 329.11352539 C1191.48069595 329.11344986 1192.44161652 329.11337433 1193.43165588 329.11329651 C1194.476436 329.10813522 1195.52121613 329.10297394 1196.59765625 329.09765625 C1197.66165146 329.0962413 1198.72564667 329.09482635 1199.82188416 329.09336853 C1203.23545083 329.08775064 1206.648953 329.07519511 1210.0625 329.0625 C1212.37044176 329.05748731 1214.67838455 329.052924 1216.98632812 329.04882812 C1222.65757426 329.0377754 1228.32878253 329.02101987 1234 329 C1235.01819097 324.63734603 1234.75382694 322.4006673 1233.1484375 318.1796875 C1232.7162793 317.02355957 1232.28412109 315.86743164 1231.83886719 314.67626953 C1231.35104925 313.40912663 1230.86308893 312.14203854 1230.375 310.875 C1229.87017205 309.5367654 1229.36661964 308.19804903 1228.86425781 306.85888672 C1227.79721 304.01889985 1226.72366809 301.18148926 1225.64550781 298.34570312 C1224.04106925 294.11876561 1222.4653042 289.88161292 1220.8984375 285.640625 C1220.37761075 284.23152426 1219.85677737 282.82242597 1219.3359375 281.41333008 C1219.07554687 280.70882721 1218.81515625 280.00432434 1218.546875 279.2784729 C1213.21736114 264.8760087 1207.81409718 250.50112196 1202.41235352 236.12564087 C1197.8554761 223.99532269 1193.36238916 211.84383207 1188.92138672 199.6706543 C1185.84481435 191.25559341 1182.69160598 182.87205323 1179.5 174.5 C1175.76906264 164.71059232 1172.09871561 154.90130029 1168.5 145.0625 C1168.1596875 144.13221481 1168.1596875 144.13221481 1167.8125 143.18313599 C1165.97623579 138.16136745 1164.14427873 133.13803 1162.3125 128.11462402 C1156.66159138 112.6197764 1150.96070043 97.14707536 1145.07226562 81.74047852 C1142.73085913 75.60523549 1140.4270554 69.45954842 1138.19140625 63.28515625 C1137.73450991 62.02887051 1137.27756086 60.77260393 1136.82055664 59.51635742 C1135.95976844 57.14278447 1135.1057509 54.76674181 1134.25952148 52.38793945 C1133.87481689 51.32921631 1133.4901123 50.27049316 1133.09375 49.1796875 C1132.76052734 48.24882324 1132.42730469 47.31795898 1132.08398438 46.35888672 C1130.94397451 43.87808146 1130.12851202 42.68361872 1128 41 C1125.66528967 40.53247789 1125.66528967 40.53247789 1123.02539062 40.58007812 C1122.01424194 40.56416626 1121.00309326 40.54825439 1119.96130371 40.53186035 C1118.87063599 40.53165894 1117.77996826 40.53145752 1116.65625 40.53125 C1115.53561157 40.52363647 1114.41497314 40.51602295 1113.26037598 40.50817871 C1110.88991526 40.49736825 1108.51940688 40.49452842 1106.14892578 40.49902344 C1102.51384493 40.49999629 1098.88086995 40.45837103 1095.24609375 40.4140625 C1092.94531692 40.40885622 1090.64453272 40.40616729 1088.34375 40.40625 C1087.25308228 40.38985474 1086.16241455 40.37345947 1085.03869629 40.35656738 C1079.34420459 40.17650016 1079.34420459 40.17650016 1074.92407227 43.21044922 Z M1372 43 C1371.69371569 46.18096605 1371.69371569 46.18096605 1371.74603271 50.00189209 C1371.74291273 50.73128502 1371.73979275 51.46067795 1371.73657823 52.2121737 C1371.72856656 54.66985034 1371.73493463 57.12728221 1371.74121094 59.58496094 C1371.73850201 61.34264267 1371.73494163 63.10032327 1371.73059082 64.85800171 C1371.72143952 69.64849195 1371.72502584 74.43889642 1371.73134899 79.22938824 C1371.73641074 84.25597554 1371.73171557 89.28255547 1371.72857666 94.30914307 C1371.72493083 102.77316603 1371.72974525 111.23715419 1371.73925781 119.70117188 C1371.75007333 129.43582672 1371.74666996 139.17039734 1371.735605 148.90505004 C1371.72646523 157.28583924 1371.72528133 165.66660336 1371.73048234 174.04739594 C1371.73357465 179.04141503 1371.73408933 184.03539488 1371.72740936 189.02941132 C1371.55991639 253.11402409 1371.55991639 253.11402409 1402.375 307.8125 C1426.80159224 330.89758603 1461.61300362 333.76584569 1493.30566406 333.13183594 C1518.76967249 332.22312826 1544.90750015 324.46837416 1564 307 C1564.63035156 306.43796875 1565.26070312 305.8759375 1565.91015625 305.296875 C1590.38511463 282.27427679 1595.77739372 245.78486268 1597 214 C1597.35627751 201.57079451 1597.2865586 189.12994322 1597.26865101 176.69695807 C1597.26349901 171.98548008 1597.26830545 167.2740089 1597.27142334 162.56253052 C1597.27502742 154.68783128 1597.27034892 146.81317 1597.26074219 138.93847656 C1597.24976556 129.83567317 1597.25346341 120.73295875 1597.264395 111.63015735 C1597.27345305 103.77144478 1597.2747634 95.91275903 1597.26951766 88.05404294 C1597.26640237 83.37739224 1597.26597853 78.70078358 1597.27259064 74.02413559 C1597.27834519 69.65226323 1597.27440234 65.28050725 1597.26280212 60.90864754 C1597.26014959 59.30335878 1597.26093069 57.69806028 1597.26532745 56.09277534 C1597.27075859 53.90968768 1597.26398009 51.72697808 1597.25396729 49.54391479 C1597.25321323 48.3211125 1597.25245918 47.0983102 1597.25168228 45.83845329 C1597.29419183 42.86626511 1597.29419183 42.86626511 1595 41 C1593.03555808 40.69502066 1593.03555808 40.69502066 1590.765625 40.74121094 C1589.89131836 40.73490662 1589.01701172 40.72860229 1588.11621094 40.72210693 C1587.17036133 40.7261554 1586.22451172 40.73020386 1585.25 40.734375 C1583.7964209 40.73150482 1583.7964209 40.73150482 1582.31347656 40.72857666 C1580.26236715 40.72721421 1578.21124914 40.73091482 1576.16015625 40.73925781 C1573.01282461 40.74995641 1569.8660638 40.73936446 1566.71875 40.7265625 C1564.7291654 40.72788408 1562.73958116 40.73044645 1560.75 40.734375 C1559.33122559 40.72830231 1559.33122559 40.72830231 1557.88378906 40.72210693 C1557.00948242 40.72841125 1556.13517578 40.73471558 1555.234375 40.74121094 C1554.07760254 40.74359772 1554.07760254 40.74359772 1552.89746094 40.74603271 C1550.75837417 40.8369258 1550.75837417 40.8369258 1549 43 C1548.80143897 45.39135759 1548.72797465 47.66742433 1548.74171448 50.06004333 C1548.73803877 50.79563652 1548.73436307 51.5312297 1548.73057598 52.28911358 C1548.72055283 54.76760025 1548.72475554 57.24586442 1548.72875977 59.72436523 C1548.72437461 61.49676758 1548.71907322 63.26916785 1548.71292114 65.04156494 C1548.70139403 68.86824746 1548.69595966 72.69487442 1548.69503975 76.52157402 C1548.69309977 82.58849493 1548.67504486 88.65530145 1548.65428162 94.72218323 C1548.60505862 109.80812436 1548.57432664 124.89409701 1548.55297852 139.98010254 C1548.53639561 151.67366512 1548.51337364 163.3671306 1548.46995777 175.06062847 C1548.44833932 181.07333095 1548.44010905 187.08584832 1548.44235051 193.09858692 C1548.44066492 196.87113676 1548.42650042 200.64356951 1548.40913773 204.41607666 C1548.40361134 206.14481301 1548.40298395 207.87357441 1548.40807533 209.60231209 C1548.46281787 230.39789924 1546.39241218 252.56119317 1534 270 C1533.56171875 270.62132812 1533.1234375 271.24265625 1532.671875 271.8828125 C1523.59806463 283.51189131 1510.68656494 288.80041979 1496.44921875 290.6875 C1477.14778476 292.43621429 1459.20196631 290.28271867 1443.53515625 278.22265625 C1428.42460178 264.97472791 1422.82673394 245.38697493 1421 226 C1420.6521144 219.88805711 1420.70867367 213.76313832 1420.71289062 207.64355469 C1420.7068526 205.84179886 1420.6999249 204.04004583 1420.69218445 202.23829651 C1420.67740546 198.38887467 1420.66857445 194.53950371 1420.66447449 190.69005585 C1420.65771705 184.60583903 1420.63591762 178.52173099 1420.61193848 172.43756104 C1420.55902725 158.44250741 1420.52536781 144.44742055 1420.49217987 130.45230865 C1420.46150261 117.58544362 1420.4267685 104.71862612 1420.37586927 91.85182309 C1420.35249401 85.79929942 1420.33877409 79.74685312 1420.33237457 73.69428873 C1420.32645654 69.94335127 1420.31238049 66.1924773 1420.29603004 62.44157219 C1420.29013239 60.69762174 1420.28768628 58.95365584 1420.28886986 57.20969582 C1420.29002134 54.83755716 1420.27907563 52.46577884 1420.26501465 50.09368896 C1420.26996311 49.0486867 1420.26996311 49.0486867 1420.27501154 47.98257327 C1420.331709 44.0499327 1420.331709 44.0499327 1418 41 C1416.03555808 40.69502066 1416.03555808 40.69502066 1413.765625 40.74121094 C1412.89131836 40.73490662 1412.01701172 40.72860229 1411.11621094 40.72210693 C1410.17036133 40.7261554 1409.22451172 40.73020386 1408.25 40.734375 C1406.7964209 40.73150482 1406.7964209 40.73150482 1405.31347656 40.72857666 C1403.26236715 40.72721421 1401.21124914 40.73091482 1399.16015625 40.73925781 C1396.01282461 40.74995641 1392.8660638 40.73936446 1389.71875 40.7265625 C1387.7291654 40.72788408 1385.73958116 40.73044645 1383.75 40.734375 C1382.33122559 40.72830231 1382.33122559 40.72830231 1380.88378906 40.72210693 C1380.00948242 40.72841125 1379.13517578 40.73471558 1378.234375 40.74121094 C1377.46319336 40.74280212 1376.69201172 40.74439331 1375.89746094 40.74603271 C1373.75837417 40.8369258 1373.75837417 40.8369258 1372 43 Z M1268 288 C1263.92094702 294.39833753 1259.92286929 301.6664657 1261.484375 309.3984375 C1263.91488651 318.39133009 1266.73924274 323.69534539 1274.68359375 328.73828125 C1282.41366601 332.94875906 1290.24965575 333.9619725 1298.8125 331.8125 C1307.72368611 328.98978054 1313.21186272 323.73983338 1317.875 315.8125 C1320.02836727 308.51497758 1320.1350428 301.62160355 1316.9375 294.625 C1312.19720457 286.37239654 1304.98698184 281.86999691 1296 279 C1285.83639608 277.19701447 1275.48291976 281.02671431 1268 288 Z " fill="#000000" transform="translate(67,67)"/>
<path d="M0 0 C646.8 0 1293.6 0 1960 0 C1960 151.8 1960 303.6 1960 460 C1313.2 460 666.4 460 0 460 C0 308.2 0 156.4 0 0 Z M20 20 C20 158.6 20 297.2 20 440 C653.6 440 1287.2 440 1940 440 C1940 301.4 1940 162.8 1940 20 C1306.4 20 672.8 20 20 20 Z " fill="#000000" transform="translate(20,20)"/>
<path d="M0 0 C7.59 -0.061875 15.18 -0.12375 23 -0.1875 C25.36027344 -0.21481201 27.72054687 -0.24212402 30.15234375 -0.27026367 C41.82744894 -0.34809328 52.63307346 0.22831182 64 3 C64.96832764 3.21261475 65.93665527 3.42522949 66.93432617 3.64428711 C77.69211855 6.10153873 86.22725745 13.84607967 92 23 C98.0493345 34.18006636 97.7631986 50.17803282 94.4375 62.1875 C90.44421249 73.06816493 82.25781635 81.23739521 72.03125 86.5390625 C50.16557092 95.79409003 22.01259392 92 0 92 C0 61.64 0 31.28 0 0 Z " fill="#000000" transform="translate(149,266)"/>
<path d="M0 0 C7.96125 -0.0825 15.9225 -0.165 24.125 -0.25 C27.84934326 -0.30462402 27.84934326 -0.30462402 31.64892578 -0.36035156 C47.39412067 -0.49572249 62.97178038 -0.09245801 75.125 11.375 C82.45338756 19.00137923 84.15150532 27.20313707 84.4375 37.5625 C84.16212222 46.75442054 82.9708065 55.70234762 77 63 C76.50628906 63.63421875 76.01257813 64.2684375 75.50390625 64.921875 C66.29007881 76.24232811 55.10620177 79.64896637 41 82 C27.47 82 13.94 82 0 82 C0 54.94 0 27.88 0 0 Z " fill="#000000" transform="translate(149,146)"/>
<path d="M0 0 C0.99 0 1.98 0 3 0 C3.16113281 0.86753906 3.32226562 1.73507813 3.48828125 2.62890625 C5.80577992 14.02403206 9.63746051 24.81976506 13.5871582 35.72680664 C14.08165507 37.09257009 14.57603928 38.45837434 15.0703125 39.82421875 C15.31692123 40.50535233 15.56352997 41.1864859 15.81761169 41.88825989 C18.33910918 48.88399584 20.67713595 55.93582633 23 63 C26.45104361 73.46706084 30.04233165 83.87171986 33.75 94.25 C40.05294981 111.9141115 40.05294981 111.9141115 42.6875 119.6875 C43.05343262 120.74662598 43.05343262 120.74662598 43.42675781 121.82714844 C44.52822214 125.11825075 45 127.47286494 45 131 C16.62 131 -11.76 131 -41 131 C-42.27027404 127.18917788 -41.50625831 125.79733181 -40.2265625 122.0234375 C-39.81873535 120.80897949 -39.4109082 119.59452148 -38.99072266 118.34326172 C-38.53579667 117.02039948 -38.08054724 115.69764843 -37.625 114.375 C-37.16011444 113.00424868 -36.69576518 111.63331536 -36.23193359 110.26220703 C-33.11870707 101.09676167 -29.8561986 91.98850421 -26.53759766 82.89550781 C-21.82283387 69.89251304 -17.52977092 56.74642999 -13.19348145 43.61364746 C-11.58579964 38.75046941 -9.95387528 33.89611929 -8.3046875 29.046875 C-7.8921875 27.8285498 -7.4796875 26.61022461 -7.0546875 25.35498047 C-6.2963768 23.11802667 -5.5337153 20.88254049 -4.765625 18.64892578 C-2.68595836 12.48831024 -1.09135578 6.41193629 0 0 Z " fill="#000000" transform="translate(1167,152)"/>
</svg>
